<svg width="46" height="46" viewBox="0 0 46 46" fill="none" xmlns="http://www.w3.org/2000/svg">
<path d="M40.6334 42.1666C41.1701 42.1666 41.4384 42.1666 41.6434 42.0621C41.8238 41.9703 41.9704 41.8236 42.0623 41.6433C42.1667 41.4383 42.1667 41.17 42.1667 40.6333V20.6999C42.1667 20.1632 42.1667 19.8948 42.0623 19.6898C41.9704 19.5095 41.8238 19.3629 41.6434 19.271C41.4384 19.1666 41.1701 19.1666 40.6334 19.1666L36.0334 19.1666C35.4967 19.1666 35.2283 19.1666 35.0233 19.271C34.843 19.3629 34.6964 19.5095 34.6045 19.6898C34.5 19.8948 34.5 20.1632 34.5 20.6999V25.2999C34.5 25.8366 34.5 26.105 34.3956 26.31C34.3037 26.4903 34.1571 26.6369 33.9768 26.7288C33.7718 26.8333 33.5034 26.8333 32.9667 26.8333H28.3667C27.83 26.8333 27.5616 26.8333 27.3566 26.9377C27.1763 27.0296 27.0297 27.1762 26.9378 27.3565C26.8334 27.5615 26.8334 27.8299 26.8334 28.3666V32.9666C26.8334 33.5033 26.8334 33.7717 26.7289 33.9767C26.637 34.157 26.4904 34.3036 26.3101 34.3955C26.1051 34.4999 25.8368 34.4999 25.3 34.4999H20.7C20.1633 34.4999 19.895 34.4999 19.69 34.6044C19.5096 34.6962 19.363 34.8429 19.2712 35.0232C19.1667 35.2282 19.1667 35.4965 19.1667 36.0332V40.6332C19.1667 41.17 19.1667 41.4383 19.2712 41.6433C19.363 41.8236 19.5096 41.9703 19.69 42.0621C19.895 42.1666 20.1633 42.1666 20.7 42.1666L40.6334 42.1666Z" stroke="#027BE3" stroke-width="3" stroke-linecap="round" stroke-linejoin="round"/>
<path d="M19.1667 13.0333C19.1667 12.4965 19.1667 12.2282 19.2712 12.0232C19.363 11.8429 19.5096 11.6962 19.69 11.6044C19.895 11.4999 20.1633 11.4999 20.7 11.4999H25.3C25.8368 11.4999 26.1051 11.4999 26.3101 11.6044C26.4904 11.6962 26.637 11.8429 26.7289 12.0232C26.8334 12.2282 26.8334 12.4965 26.8334 13.0333V17.6333C26.8334 18.17 26.8334 18.4383 26.7289 18.6433C26.637 18.8236 26.4904 18.9703 26.3101 19.0621C26.1051 19.1666 25.8368 19.1666 25.3 19.1666H20.7C20.1633 19.1666 19.895 19.1666 19.69 19.0621C19.5096 18.9703 19.363 18.8236 19.2712 18.6433C19.1667 18.4383 19.1667 18.17 19.1667 17.6333V13.0333Z" stroke="#027BE3" stroke-width="3" stroke-linecap="round" stroke-linejoin="round"/>
<path d="M5.75004 24.5333C5.75004 23.9965 5.75004 23.7282 5.85449 23.5232C5.94637 23.3429 6.09298 23.1962 6.2733 23.1044C6.4783 22.9999 6.74666 22.9999 7.28337 22.9999H11.8834C12.4201 22.9999 12.6884 22.9999 12.8934 23.1044C13.0738 23.1962 13.2204 23.3429 13.3123 23.5232C13.4167 23.7282 13.4167 23.9965 13.4167 24.5333V29.1333C13.4167 29.67 13.4167 29.9383 13.3123 30.1433C13.2204 30.3236 13.0738 30.4703 12.8934 30.5621C12.6884 30.6666 12.4201 30.6666 11.8834 30.6666H7.28337C6.74666 30.6666 6.4783 30.6666 6.2733 30.5621C6.09298 30.4703 5.94637 30.3236 5.85449 30.1433C5.75004 29.9383 5.75004 29.67 5.75004 29.1333V24.5333Z" stroke="#027BE3" stroke-width="3" stroke-linecap="round" stroke-linejoin="round"/>
<path d="M3.83337 5.36659C3.83337 4.82987 3.83337 4.56151 3.93783 4.35651C4.0297 4.17619 4.17631 4.02958 4.35663 3.9377C4.56163 3.83325 4.82999 3.83325 5.36671 3.83325H9.96671C10.5034 3.83325 10.7718 3.83325 10.9768 3.9377C11.1571 4.02958 11.3037 4.17619 11.3956 4.35651C11.5 4.56151 11.5 4.82987 11.5 5.36659V9.96659C11.5 10.5033 11.5 10.7717 11.3956 10.9767C11.3037 11.157 11.1571 11.3036 10.9768 11.3955C10.7718 11.4999 10.5034 11.4999 9.96671 11.4999H5.36671C4.82999 11.4999 4.56163 11.4999 4.35663 11.3955C4.17631 11.3036 4.0297 11.157 3.93783 10.9767C3.83337 10.7717 3.83337 10.5033 3.83337 9.96659V5.36659Z" stroke="#027BE3" stroke-width="3" stroke-linecap="round" stroke-linejoin="round"/>
</svg>
