<svg width="46" height="46" viewBox="0 0 46 46" fill="none" xmlns="http://www.w3.org/2000/svg">
<path d="M20.1242 17.2543C20.462 16.2943 21.1285 15.4848 22.0059 14.9691C22.8833 14.4535 23.9148 14.265 24.9179 14.437C25.9209 14.6091 26.8307 15.1306 27.486 15.9091C28.1414 16.6877 28.5001 17.673 28.4986 18.6907C28.4986 21.5636 24.1893 23 24.1893 23M24.2449 28.75H24.2641M23.9576 38.3333C32.9552 38.3333 40.2492 31.0393 40.2492 22.0417C40.2492 13.044 32.9552 5.75 23.9576 5.75C14.9599 5.75 7.66591 13.044 7.66591 22.0417C7.66591 23.8625 7.96461 25.6135 8.5157 27.2485C8.72308 27.8638 8.82677 28.1714 8.84548 28.4077C8.86395 28.6411 8.84999 28.8048 8.79224 29.0317C8.73377 29.2614 8.60468 29.5003 8.3465 29.9782L5.21149 35.781C4.76431 36.6087 4.54072 37.0226 4.59076 37.342C4.63435 37.6202 4.79809 37.8651 5.03849 38.0118C5.3145 38.1801 5.7824 38.1318 6.71819 38.035L16.5335 37.0204C16.8307 36.9897 16.9793 36.9744 17.1148 36.9795C17.248 36.9846 17.3421 36.9972 17.472 37.0271C17.6041 37.0575 17.7702 37.1215 18.1025 37.2495C19.9196 37.9496 21.8937 38.3333 23.9576 38.3333Z" stroke="#027BE3" stroke-width="3" stroke-linecap="round" stroke-linejoin="round"/>
</svg>
