<svg width="46" height="46" viewBox="0 0 46 46" fill="none" xmlns="http://www.w3.org/2000/svg">
<path d="M36.0333 13.4167C38.1802 13.4167 39.2536 13.4167 40.0736 13.8345C40.7949 14.202 41.3813 14.7884 41.7488 15.5097C42.1666 16.3297 42.1666 17.4031 42.1666 19.55V30.2833C42.1666 32.4302 42.1666 33.5036 41.7488 34.3236C41.3813 35.0449 40.7949 35.6313 40.0736 35.9989C39.2536 36.4167 38.1802 36.4167 36.0333 36.4167L9.96665 36.4167C7.81978 36.4167 6.74634 36.4167 5.92635 35.9989C5.20506 35.6313 4.61864 35.0449 4.25112 34.3236C3.83331 33.5036 3.83331 32.4302 3.83331 30.2833L3.83331 19.55C3.83331 17.4031 3.83331 16.3297 4.25112 15.5097C4.61864 14.7884 5.20506 14.202 5.92635 13.8345C6.74635 13.4167 7.81978 13.4167 9.96665 13.4167L24.9166 13.4167M36.0333 13.4167V5.75M36.0333 13.4167L30.6666 13.4167M30.6666 13.4167V5.75M30.6666 13.4167L24.9166 13.4167M24.9166 13.4167V5.75M8.62498 18.2083H14.375" stroke="#027BE3" stroke-width="3" stroke-linecap="round" stroke-linejoin="round"/>
</svg>
