<svg width="46" height="46" viewBox="0 0 46 46" fill="none" xmlns="http://www.w3.org/2000/svg">
<path d="M7.66663 13.0333C7.66663 9.81295 7.66663 8.2028 8.29334 6.97281C8.84461 5.89087 9.72425 5.01124 10.8062 4.45996C12.0362 3.83325 13.6463 3.83325 16.8666 3.83325H23.0225C24.4289 3.83325 25.1321 3.83325 25.7939 3.99212C26.3806 4.13298 26.9415 4.36531 27.4559 4.68057C28.0362 5.03616 28.5334 5.5334 29.5279 6.52787L35.6387 12.6386C36.6331 13.6331 37.1304 14.1303 37.486 14.7106C37.8012 15.2251 38.0336 15.786 38.1744 16.3727C38.3333 17.0344 38.3333 17.7376 38.3333 19.144V32.9666C38.3333 36.1869 38.3333 37.797 37.7066 39.027C37.1553 40.109 36.2757 40.9886 35.1937 41.5399C33.9637 42.1666 32.3536 42.1666 29.1333 42.1666H16.8666C13.6463 42.1666 12.0362 42.1666 10.8062 41.5399C9.72425 40.9886 8.84461 40.109 8.29334 39.027C7.66663 37.797 7.66663 36.1869 7.66663 32.9666V13.0333Z" stroke="#027BE3" stroke-width="3" stroke-linecap="round" stroke-linejoin="round"/>
<path d="M15.3333 26.4499C15.3333 25.9132 15.3333 25.6448 15.4377 25.4398C15.5296 25.2595 15.6762 25.1129 15.8566 25.021C16.0615 24.9166 16.3299 24.9166 16.8666 24.9166H29.1333C29.67 24.9166 29.9384 24.9166 30.1434 25.021C30.3237 25.1129 30.4703 25.2595 30.5622 25.4398C30.6666 25.6448 30.6666 25.9132 30.6666 26.4499V32.9666C30.6666 33.5033 30.6666 33.7717 30.5622 33.9767C30.4703 34.157 30.3237 34.3036 30.1434 34.3955C29.9384 34.4999 29.67 34.4999 29.1333 34.4999H16.8666C16.3299 34.4999 16.0615 34.4999 15.8566 34.3955C15.6762 34.3036 15.5296 34.157 15.4377 33.9767C15.3333 33.7717 15.3333 33.5033 15.3333 32.9666V26.4499Z" stroke="#027BE3" stroke-width="3" stroke-linecap="round" stroke-linejoin="round"/>
</svg>
