<svg width="46" height="46" viewBox="0 0 46 46" fill="none" xmlns="http://www.w3.org/2000/svg">
<path d="M42.1667 20.1251L41.2574 12.8506C40.9007 9.99745 40.7224 8.57083 40.051 7.49578C39.4594 6.5486 38.6048 5.79418 37.5916 5.32466C36.4416 4.79175 35.0038 4.79175 32.1284 4.79175H13.8716C10.9962 4.79175 9.55853 4.79175 8.4085 5.32466C7.39526 5.79418 6.54067 6.5486 5.9491 7.49578C5.27766 8.57083 5.09933 9.99743 4.74268 12.8506L3.83337 20.1251M10.5417 27.7917H35.4584M10.5417 27.7917C6.8368 27.7917 3.83337 24.7883 3.83337 21.0834C3.83337 17.3785 6.8368 14.3751 10.5417 14.3751H35.4584C39.1633 14.3751 42.1667 17.3785 42.1667 21.0834C42.1667 24.7883 39.1633 27.7917 35.4584 27.7917M10.5417 27.7917C6.8368 27.7917 3.83337 30.7952 3.83337 34.5001C3.83337 38.205 6.8368 41.2084 10.5417 41.2084H35.4584C39.1633 41.2084 42.1667 38.205 42.1667 34.5001C42.1667 30.7952 39.1633 27.7917 35.4584 27.7917M11.5 21.0834H11.5192M11.5 34.5001H11.5192M23 21.0834H34.5M23 34.5001H34.5" stroke="#027BE3" stroke-width="3" stroke-linecap="round" stroke-linejoin="round"/>
</svg>
