<svg width="46" height="46" viewBox="0 0 46 46" fill="none" xmlns="http://www.w3.org/2000/svg">
<path d="M13.4167 16.2917H23M13.4167 23H28.75M18.5605 34.5H31.05C34.2703 34.5 35.8805 34.5 37.1104 33.8733C38.1924 33.322 39.072 32.4424 39.6233 31.3604C40.25 30.1305 40.25 28.5203 40.25 25.3V14.95C40.25 11.7297 40.25 10.1195 39.6233 8.88955C39.072 7.80762 38.1924 6.92798 37.1104 6.37671C35.8805 5.75 34.2703 5.75 31.05 5.75H14.95C11.7297 5.75 10.1195 5.75 8.88955 6.37671C7.80762 6.92798 6.92798 7.80762 6.37671 8.88955C5.75 10.1195 5.75 11.7297 5.75 14.95V38.9764C5.75 39.9977 5.75 40.5083 5.95935 40.7706C6.14143 40.9987 6.41752 41.1314 6.70937 41.1311C7.04495 41.1307 7.4437 40.8117 8.2412 40.1737L12.8133 36.516C13.7473 35.7688 14.2143 35.3952 14.7343 35.1295C15.1957 34.8938 15.6868 34.7216 16.1943 34.6174C16.7664 34.5 17.3644 34.5 18.5605 34.5Z" stroke="#027BE3" stroke-width="3" stroke-linecap="round" stroke-linejoin="round"/>
</svg>
