<svg width="301" height="153" viewBox="0 0 301 153" fill="none" xmlns="http://www.w3.org/2000/svg">
<path opacity="0.15" fill-rule="evenodd" clip-rule="evenodd" d="M300.067 97.0772C300.271 100.107 300.087 103.117 299.494 106.09C298.902 109.064 297.918 111.914 296.569 114.634L292.09 112.413C293.249 110.075 294.087 107.642 294.591 105.113C295.095 102.584 295.253 100.017 295.078 97.4124L300.067 97.0772ZM285.219 128.594L282.006 124.763C278.086 128.049 273.32 131.058 267.767 133.732L269.936 138.237C275.795 135.416 280.927 132.193 285.219 128.594ZM253.027 144.677L251.6 139.885C246.286 141.467 240.574 142.806 234.512 143.882L235.386 148.805C241.616 147.699 247.514 146.319 253.027 144.677ZM217.429 151.146L216.996 146.165C211.292 146.661 205.375 146.952 199.277 147.027L199.339 152.027C205.555 151.95 211.596 151.654 217.429 151.146ZM181.211 151.647L181.477 146.654C175.673 146.345 169.751 145.853 163.735 145.171L163.171 150.139C169.285 150.832 175.306 151.333 181.211 151.647ZM145.229 147.586L146.071 142.658C143.159 142.16 140.231 141.618 137.292 141.033C134.352 140.447 131.44 139.825 128.559 139.169L127.449 144.044C130.374 144.71 133.33 145.342 136.315 145.936C139.299 146.531 142.271 147.081 145.229 147.586ZM109.898 139.525L111.281 134.72C105.463 133.045 99.8046 131.23 94.3258 129.291L92.6575 134.004C98.2318 135.977 103.986 137.823 109.898 139.525ZM75.7685 127.408L77.7418 122.814C72.1385 120.407 66.7842 117.871 61.706 115.227L59.3968 119.661C64.5899 122.365 70.0566 124.954 75.7685 127.408ZM43.7085 110.617L46.4023 106.404C41.2157 103.087 36.4527 99.6622 32.1513 96.1642L28.9967 100.043C33.4588 103.672 38.3776 107.207 43.7085 110.617ZM15.8468 87.6145L19.5766 84.2845C15.4717 79.6869 12.223 75.0813 9.86251 70.5433L5.42672 72.8506C8.01136 77.8195 11.5157 82.7635 15.8468 87.6145ZM0.292836 55.607L5.28159 55.2718C5.1066 52.6677 5.26509 50.0998 5.7689 47.571C6.27271 45.0423 7.11049 42.6096 8.27012 40.2715L3.79076 38.0499C2.44148 40.7705 1.45767 43.6206 0.865273 46.5941C0.272874 49.5675 0.0892347 52.5771 0.292836 55.607ZM15.1412 24.0905L18.354 27.9217C22.2735 24.6348 27.0393 21.6259 32.5927 18.9526L30.424 14.4474C24.5644 17.2681 19.4328 20.4916 15.1412 24.0905ZM47.3331 8.00721L48.7602 12.7992C54.0737 11.2168 59.7858 9.87854 65.8476 8.80262L64.9738 3.87957C58.7434 4.98542 52.8452 6.36567 47.3331 8.00721ZM82.9306 1.53797L83.3639 6.51916C89.0678 6.02308 94.9852 5.73255 101.083 5.65709L101.021 0.657471C94.8051 0.734394 88.7636 1.03066 82.9306 1.53797ZM119.149 1.03751L118.883 6.03046C124.687 6.3391 130.609 6.8313 136.625 7.51354L137.188 2.54538C131.075 1.8521 125.053 1.35154 119.149 1.03751ZM155.131 5.09822L154.289 10.0267C157.201 10.5245 160.128 11.066 163.068 11.6517C166.008 12.2374 168.92 12.8593 171.8 13.5156L172.911 8.64055C169.986 7.97406 167.03 7.34269 164.045 6.74807C161.061 6.15344 158.088 5.60371 155.131 5.09822ZM190.462 13.1591L189.078 17.9638C194.896 19.6393 200.555 21.4544 206.034 23.3936L207.702 18.6801C202.128 16.7072 196.374 14.8617 190.462 13.1591ZM224.591 25.2764L222.618 29.8706C228.221 32.2773 233.575 34.8135 238.654 37.4577L240.963 33.0229C235.77 30.3188 230.303 27.7298 224.591 25.2764ZM256.651 42.0676L253.957 46.2799C259.144 49.5969 263.907 53.0221 268.208 56.5201L271.363 52.6409C266.901 49.0122 261.982 45.4768 256.651 42.0676ZM284.513 65.0698L280.783 68.3998C284.888 72.9973 288.137 77.603 290.497 82.141L294.933 79.8337C292.348 74.8648 288.844 69.9208 284.513 65.0698Z" fill="#027BE3"/>
</svg>
