<svg width="32" height="32" viewBox="0 0 32 32" fill="none" xmlns="http://www.w3.org/2000/svg">
<path d="M5.33331 9.06663C5.33331 6.82642 5.33331 5.70631 5.76929 4.85066C6.15278 4.09802 6.7647 3.48609 7.51735 3.1026C8.373 2.66663 9.4931 2.66663 11.7333 2.66663H16.0157C16.994 2.66663 17.4832 2.66663 17.9436 2.77715C18.3517 2.87513 18.7419 3.03675 19.0998 3.25607C19.5035 3.50343 19.8494 3.84934 20.5412 4.54114L24.7921 8.79211C25.4839 9.48392 25.8298 9.82982 26.0772 10.2335C26.2965 10.5914 26.4581 10.9816 26.5561 11.3897C26.6666 11.85 26.6666 12.3392 26.6666 13.3176V22.9333C26.6666 25.1735 26.6666 26.2936 26.2307 27.1493C25.8472 27.9019 25.2353 28.5138 24.4826 28.8973C23.627 29.3333 22.5069 29.3333 20.2666 29.3333H11.7333C9.4931 29.3333 8.373 29.3333 7.51735 28.8973C6.7647 28.5138 6.15278 27.9019 5.76929 27.1493C5.33331 26.2936 5.33331 25.1735 5.33331 22.9333V9.06663Z" stroke="#027BE3" stroke-width="2" stroke-linecap="round" stroke-linejoin="round"/>
<path d="M10.6666 18.4C10.6666 18.0266 10.6666 17.8399 10.7393 17.6973C10.8032 17.5719 10.9052 17.4699 11.0307 17.406C11.1733 17.3333 11.3599 17.3333 11.7333 17.3333H20.2666C20.64 17.3333 20.8267 17.3333 20.9693 17.406C21.0947 17.4699 21.1967 17.5719 21.2607 17.6973C21.3333 17.8399 21.3333 18.0266 21.3333 18.4V22.9333C21.3333 23.3067 21.3333 23.4933 21.2607 23.636C21.1967 23.7614 21.0947 23.8634 20.9693 23.9273C20.8267 24 20.64 24 20.2666 24H11.7333C11.3599 24 11.1733 24 11.0307 23.9273C10.9052 23.8634 10.8032 23.7614 10.7393 23.636C10.6666 23.4933 10.6666 23.3067 10.6666 22.9333V18.4Z" stroke="#027BE3" stroke-width="2" stroke-linecap="round" stroke-linejoin="round"/>
</svg>
