<svg width="32" height="32" viewBox="0 0 32 32" fill="none" xmlns="http://www.w3.org/2000/svg">
<path d="M9.33333 11.3333H16M9.33333 16H20M12.9117 24H21.6C23.8402 24 24.9603 24 25.816 23.564C26.5686 23.1805 27.1805 22.5686 27.564 21.816C28 20.9603 28 19.8402 28 17.6V10.4C28 8.15979 28 7.03969 27.564 6.18404C27.1805 5.43139 26.5686 4.81947 25.816 4.43597C24.9603 4 23.8402 4 21.6 4H10.4C8.15979 4 7.03969 4 6.18404 4.43597C5.43139 4.81947 4.81947 5.43139 4.43597 6.18404C4 7.03969 4 8.15979 4 10.4V27.114C4 27.8245 4 28.1797 4.14564 28.3622C4.2723 28.5208 4.46436 28.6131 4.66739 28.6129C4.90084 28.6127 5.17823 28.3908 5.73301 27.9469L8.91362 25.4024C9.56336 24.8827 9.88823 24.6228 10.25 24.4379C10.5709 24.274 10.9126 24.1541 11.2656 24.0817C11.6636 24 12.0796 24 12.9117 24Z" stroke="#027BE3" stroke-width="2" stroke-linecap="round" stroke-linejoin="round"/>
</svg>
