<svg width="168" height="42" viewBox="0 0 168 42" fill="none" xmlns="http://www.w3.org/2000/svg">
<rect y="0.848734" width="40.3025" height="40.3025" rx="4" fill="#027BE3"/>
<path d="M5.31723 15.6208C5.03135 14.5538 5.66451 13.4572 6.73144 13.1713L12.0474 11.7469L13.1541 11.4503C13.6095 11.3283 14.0934 11.3711 14.5204 11.5712L17.2055 12.8295L19.8017 14.1889C20.297 14.4482 20.6612 14.903 20.8059 15.4431L21.8626 19.3866L23.9124 27.0366C24.1982 28.1035 23.5651 29.2002 22.4981 29.4861L11.8663 32.3349C10.7994 32.6208 9.70271 31.9876 9.41682 30.9207L5.31723 15.6208Z" fill="white" fill-opacity="0.6"/>
<rect opacity="0.4" x="9.9015" y="27.2234" width="8.16309" height="4.08155" rx="1" transform="rotate(-15 9.9015 27.2234)" fill="#131313"/>
<path d="M19.4597 13.0448C19.4597 11.9403 20.3551 11.0448 21.4597 11.0448H26.9631H28.1089C28.5804 11.0448 29.0368 11.2114 29.3974 11.5152L31.6653 13.4256L33.8212 15.4106C34.2325 15.7893 34.4666 16.3228 34.4666 16.8819V20.9646V28.8844C34.4666 29.989 33.5711 30.8844 32.4666 30.8844H21.4597C20.3551 30.8844 19.4597 29.989 19.4597 28.8844V13.0448Z" fill="white"/>
<rect x="21.1258" y="25.1106" width="8.16309" height="4.08155" rx="1" fill="#131313"/>
<path d="M51 22.2857H52.8075C52.9548 22.7868 53.1958 23.2352 53.5305 23.6308C54.2803 24.5143 55.3782 24.956 56.8242 24.956C57.9757 24.956 58.846 24.7319 59.4351 24.2835C60.0376 23.8352 60.3389 23.2681 60.3389 22.5824C60.3389 22.0022 60.0978 21.5407 59.6158 21.1978C59.1338 20.8549 58.451 20.5582 57.5673 20.3077C57.4067 20.2549 57.1456 20.1824 56.7841 20.0901C56.4359 19.9978 56.1615 19.9253 55.9606 19.8725C55.7598 19.8198 55.492 19.7407 55.1573 19.6352C54.8226 19.5297 54.5548 19.4374 54.354 19.3582C54.1531 19.2659 53.9121 19.1538 53.6309 19.022C53.3498 18.8769 53.1222 18.7385 52.9481 18.6066C52.7874 18.4747 52.6067 18.3165 52.4058 18.1319C52.2184 17.9341 52.0711 17.7297 51.964 17.5187C51.8703 17.3077 51.7833 17.0703 51.7029 16.8066C51.636 16.5429 51.6025 16.2593 51.6025 15.956C51.6025 14.8747 52.0644 13.9451 52.9883 13.167C53.9121 12.389 55.1238 12 56.6234 12C58.605 12 60.1045 12.6462 61.1221 13.9385C61.5506 14.5055 61.8585 15.1451 62.046 15.8571H60.2384C60.1179 15.4879 59.9037 15.1253 59.5958 14.7692C58.8594 14.044 57.8686 13.6813 56.6234 13.6813C55.6192 13.6813 54.8293 13.9055 54.2535 14.3538C53.6912 14.789 53.41 15.3231 53.41 15.956C53.41 16.2593 53.4971 16.5363 53.6711 16.7868C53.8452 17.0374 54.0527 17.2484 54.2937 17.4198C54.5347 17.578 54.8694 17.7429 55.2979 17.9143C55.7397 18.0725 56.128 18.1978 56.4627 18.2901C56.7975 18.3824 57.2393 18.4945 57.7882 18.6264C58.4041 18.7846 58.9464 18.9626 59.415 19.1604C59.8836 19.3582 60.3389 19.6088 60.7807 19.9121C61.2225 20.2154 61.5573 20.5912 61.7849 21.0396C62.0259 21.4879 62.1464 22.0022 62.1464 22.5824C62.1464 23.7165 61.6711 24.6791 60.7204 25.4703C59.7698 26.2484 58.4711 26.6374 56.8242 26.6374C54.6686 26.6374 53.0552 25.9121 51.9841 24.4615C51.5155 23.8418 51.1874 23.1165 51 22.2857Z" fill="#027BE3"/>
<path d="M64.469 14.156C64.2548 13.9451 64.1477 13.6879 64.1477 13.3846C64.1477 13.0813 64.2548 12.8242 64.469 12.6132C64.6832 12.4022 64.9443 12.2967 65.2523 12.2967C65.5602 12.2967 65.8213 12.4022 66.0355 12.6132C66.2497 12.8242 66.3569 13.0813 66.3569 13.3846C66.3569 13.6879 66.2497 13.9451 66.0355 14.156C65.8213 14.367 65.5602 14.4725 65.2523 14.4725C64.9443 14.4725 64.6832 14.367 64.469 14.156ZM64.4489 26.2418V16.3516H66.0556V26.2418H64.4489Z" fill="#027BE3"/>
<path d="M68.8618 26.2418V16.3516H70.4685V17.8352H70.4886C70.6626 17.5319 70.9103 17.2549 71.2317 17.0044C71.9681 16.4374 72.8183 16.1538 73.7823 16.1538C74.7865 16.1538 75.6233 16.4835 76.2927 17.1429C76.5873 17.433 76.8216 17.7626 76.9956 18.1319H77.0961C77.2969 17.789 77.5781 17.4593 77.9396 17.1429C78.7161 16.4835 79.6734 16.1538 80.8115 16.1538C81.896 16.1538 82.7864 16.5363 83.4826 17.3011C84.1789 18.0659 84.527 19.1011 84.527 20.4066V26.2418H82.9203V20.5055C82.9203 19.5824 82.6994 18.8769 82.2575 18.389C81.8291 17.8879 81.2467 17.6374 80.5103 17.6374C79.7069 17.6374 79.004 17.9407 78.4015 18.5473C77.799 19.1538 77.4977 19.8725 77.4977 20.7033V26.2418H75.891V20.5055C75.891 19.5824 75.6701 18.8769 75.2283 18.389C74.7998 17.8879 74.2174 17.6374 73.481 17.6374C72.6777 17.6374 71.9748 17.9407 71.3722 18.5473C70.7697 19.1538 70.4685 19.8725 70.4685 20.7033V26.2418H68.8618Z" fill="#027BE3"/>
<path d="M87.239 26.2418V12.3956H88.8457V17.9341H88.8658L89.0666 17.6374C89.2943 17.2945 89.7026 16.9648 90.2917 16.6484C90.8809 16.3187 91.6039 16.1538 92.4608 16.1538C93.7997 16.1538 94.9377 16.6484 95.875 17.6374C96.8122 18.6132 97.2808 19.833 97.2808 21.2967C97.2808 22.7604 96.8122 23.9868 95.875 24.9758C94.9377 25.9516 93.7997 26.4396 92.4608 26.4396C91.6039 26.4396 90.8742 26.2813 90.2717 25.9648C89.6825 25.6352 89.2809 25.2923 89.0666 24.9363L88.8658 24.6593H88.8457V26.2418H87.239ZM89.8097 18.6659C89.1671 19.3516 88.8457 20.2286 88.8457 21.2967C88.8457 22.3648 89.1671 23.2418 89.8097 23.9275C90.4658 24.6132 91.2825 24.956 92.2599 24.956C93.2373 24.956 94.0474 24.6132 94.69 23.9275C95.3461 23.2418 95.6741 22.3648 95.6741 21.2967C95.6741 20.2286 95.3461 19.3516 94.69 18.6659C94.0474 17.9802 93.2373 17.6374 92.2599 17.6374C91.2825 17.6374 90.4658 17.9802 89.8097 18.6659Z" fill="black"/>
<path d="M100.3 24.9758C99.3632 23.9868 98.8946 22.7604 98.8946 21.2967C98.8946 19.833 99.3632 18.6132 100.3 17.6374C101.238 16.6484 102.376 16.1538 103.715 16.1538C104.558 16.1538 105.268 16.3121 105.843 16.6286C106.433 16.9451 106.861 17.2879 107.129 17.6571L107.31 17.9538H107.33V16.3516H108.936V26.2418H107.33V24.6593H107.31L107.129 24.9363C106.888 25.2923 106.473 25.6352 105.884 25.9648C105.295 26.2813 104.572 26.4396 103.715 26.4396C102.376 26.4396 101.238 25.9516 100.3 24.9758ZM101.465 18.6659C100.823 19.3516 100.501 20.2286 100.501 21.2967C100.501 22.3648 100.823 23.2418 101.465 23.9275C102.121 24.6132 102.938 24.956 103.915 24.956C104.893 24.956 105.703 24.6132 106.346 23.9275C107.002 23.2418 107.33 22.3648 107.33 21.2967C107.33 20.2286 107.002 19.3516 106.346 18.6659C105.703 17.9802 104.893 17.6374 103.915 17.6374C102.938 17.6374 102.121 17.9802 101.465 18.6659Z" fill="black"/>
<path d="M111.755 26.2418V16.3516H113.362V17.8352H113.382C113.583 17.5187 113.844 17.2418 114.165 17.0044C114.902 16.4374 115.772 16.1538 116.776 16.1538C117.994 16.1538 118.965 16.5363 119.688 17.3011C120.424 18.0527 120.793 19.0879 120.793 20.4066V26.2418H119.186V20.5055C119.186 19.556 118.945 18.844 118.463 18.3692C117.981 17.8813 117.318 17.6374 116.475 17.6374C115.551 17.6374 114.801 17.9407 114.225 18.5473C113.65 19.1407 113.362 19.9253 113.362 20.9011V26.2418H111.755Z" fill="black"/>
<path d="M123.503 26.2418V12.3956H125.11V20.3077H127.118L130.332 16.3516H132.24L128.524 21L132.541 26.2418H130.532L127.118 21.7912H125.11V26.2418H123.503Z" fill="black"/>
<path d="M133.894 26.2022C133.667 25.978 133.553 25.6945 133.553 25.3516C133.553 25.0088 133.667 24.7253 133.894 24.5011C134.122 24.2769 134.41 24.1648 134.758 24.1648C135.106 24.1648 135.394 24.2769 135.621 24.5011C135.849 24.7253 135.963 25.0088 135.963 25.3516C135.963 25.6945 135.849 25.978 135.621 26.2022C135.394 26.4264 135.106 26.5385 134.758 26.5385C134.41 26.5385 134.122 26.4264 133.894 26.2022Z" fill="black"/>
<path d="M138.272 30V16.3516H139.878V17.9341H139.898L140.099 17.6374C140.327 17.2945 140.735 16.9648 141.324 16.6484C141.913 16.3187 142.636 16.1538 143.493 16.1538C144.832 16.1538 145.97 16.6484 146.908 17.6374C147.845 18.6132 148.313 19.833 148.313 21.2967C148.313 22.7604 147.845 23.9868 146.908 24.9758C145.97 25.9516 144.832 26.4396 143.493 26.4396C142.636 26.4396 141.907 26.2813 141.304 25.9648C140.715 25.6352 140.313 25.2923 140.099 24.9363L139.898 24.6593H139.878V30H138.272ZM140.842 18.6659C140.2 19.3516 139.878 20.2286 139.878 21.2967C139.878 22.3648 140.2 23.2418 140.842 23.9275C141.498 24.6132 142.315 24.956 143.293 24.956C144.27 24.956 145.08 24.6132 145.723 23.9275C146.379 23.2418 146.707 22.3648 146.707 21.2967C146.707 20.2286 146.379 19.3516 145.723 18.6659C145.08 17.9802 144.27 17.6374 143.293 17.6374C142.315 17.6374 141.498 17.9802 140.842 18.6659Z" fill="black"/>
<path d="M150.53 26.2418V16.3516H152.136V17.9341H152.156C152.344 17.6044 152.571 17.3275 152.839 17.1033C153.495 16.5363 154.299 16.2527 155.249 16.2527H156.454V17.8352H155.249C154.339 17.8352 153.589 18.1253 153 18.7055C152.424 19.2725 152.136 20.0044 152.136 20.9011V26.2418H150.53Z" fill="black"/>
<path d="M159.043 24.9758C158.052 24 157.557 22.7736 157.557 21.2967C157.557 19.8198 158.052 18.5934 159.043 17.6176C160.034 16.6418 161.279 16.1538 162.778 16.1538C164.278 16.1538 165.523 16.6418 166.514 17.6176C167.505 18.5934 168 19.8198 168 21.2967C168 22.7736 167.505 24 166.514 24.9758C165.523 25.9516 164.278 26.4396 162.778 26.4396C161.279 26.4396 160.034 25.9516 159.043 24.9758ZM160.188 18.6659C159.505 19.3516 159.163 20.2286 159.163 21.2967C159.163 22.3648 159.505 23.2418 160.188 23.9275C160.87 24.6132 161.734 24.956 162.778 24.956C163.823 24.956 164.686 24.6132 165.369 23.9275C166.052 23.2418 166.393 22.3648 166.393 21.2967C166.393 20.2286 166.052 19.3516 165.369 18.6659C164.686 17.9802 163.823 17.6374 162.778 17.6374C161.734 17.6374 160.87 17.9802 160.188 18.6659Z" fill="black"/>
</svg>
