<svg width="18" height="18" viewBox="0 0 18 18" fill="none" xmlns="http://www.w3.org/2000/svg">
<path d="M5.7422 6.16791C6.3686 7.47257 7.22251 8.69534 8.30393 9.77676C9.38535 10.8582 10.6081 11.7121 11.9128 12.3385C12.025 12.3924 12.0811 12.4193 12.1521 12.44C12.4044 12.5136 12.7143 12.4607 12.928 12.3077C12.9881 12.2647 13.0395 12.2132 13.1424 12.1103C13.4571 11.7957 13.6144 11.6384 13.7726 11.5355C14.3692 11.1476 15.1383 11.1476 15.7349 11.5355C15.8931 11.6384 16.0504 11.7957 16.3651 12.1103L16.5405 12.2857C17.0187 12.764 17.2579 13.0032 17.3878 13.26C17.6462 13.7708 17.6462 14.3741 17.3878 14.8849C17.2579 15.1417 17.0187 15.3809 16.5405 15.8592L16.3986 16.001C15.9219 16.4777 15.6836 16.716 15.3596 16.898C15 17.1 14.4416 17.2452 14.0292 17.244C13.6575 17.2429 13.4035 17.1708 12.8955 17.0266C10.1655 16.2518 7.58933 14.7897 5.44015 12.6405C3.29096 10.4914 1.82894 7.91524 1.05406 5.18518C0.909877 4.67718 0.837783 4.42318 0.836678 4.05153C0.83545 3.63913 0.980676 3.08069 1.18265 2.72113C1.36468 2.3971 1.60301 2.15877 2.07967 1.68211L2.22154 1.54024C2.69984 1.06194 2.93899 0.822794 3.19583 0.692884C3.70664 0.43452 4.30987 0.43452 4.82068 0.692883C5.07752 0.822793 5.31667 1.06194 5.79497 1.54024L5.97035 1.71562C6.285 2.03027 6.44232 2.18759 6.54518 2.34579C6.93307 2.94239 6.93307 3.71152 6.54518 4.30812C6.44232 4.46632 6.285 4.62364 5.97035 4.93829C5.86747 5.04117 5.81603 5.09261 5.77297 5.15274C5.61996 5.36642 5.56713 5.67626 5.64068 5.92858C5.66138 5.99958 5.68832 6.05569 5.7422 6.16791Z" fill="#131313"/>
</svg>
