<svg width="19" height="19" viewBox="0 0 19 19" fill="none" xmlns="http://www.w3.org/2000/svg">
<path d="M16.1341 2.85625C14.3561 1.08437 11.9854 0.0999985 9.48292 0.0999985C4.28049 0.0999985 0.0658526 4.3 0.0658526 9.48437C0.0658526 11.125 0.526829 12.7656 1.31707 14.1437L0 19L5.00488 17.6875C6.38781 18.4094 7.90244 18.8031 9.48292 18.8031C14.6854 18.8031 18.9 14.6031 18.9 9.41875C18.8341 6.99062 17.9122 4.62812 16.1341 2.85625ZM14.0268 12.8312C13.8293 13.3562 12.9073 13.8812 12.4463 13.9469C12.0512 14.0125 11.5244 14.0125 10.9976 13.8812C10.6683 13.75 10.2073 13.6187 9.68049 13.3562C7.30976 12.3719 5.79512 10.0094 5.66342 9.8125C5.53171 9.68125 4.67561 8.56562 4.67561 7.38437C4.67561 6.20312 5.26829 5.67812 5.46585 5.41562C5.66341 5.15312 5.92683 5.15312 6.12439 5.15312C6.2561 5.15312 6.45366 5.15312 6.58536 5.15312C6.71707 5.15312 6.91463 5.0875 7.11219 5.54687C7.30976 6.00625 7.77073 7.1875 7.83658 7.25312C7.90244 7.38437 7.90244 7.51562 7.83658 7.64687C7.77073 7.77812 7.70487 7.90937 7.57317 8.04062C7.44146 8.17187 7.30975 8.36875 7.2439 8.43437C7.11219 8.56562 6.98049 8.69687 7.11219 8.89375C7.2439 9.15625 7.70488 9.87812 8.42927 10.5344C9.35122 11.3219 10.0756 11.5844 10.339 11.7156C10.6024 11.8469 10.7341 11.7812 10.8659 11.65C10.9976 11.5187 11.4585 10.9937 11.5902 10.7312C11.722 10.4687 11.9195 10.5344 12.1171 10.6C12.3146 10.6656 13.5 11.2562 13.6976 11.3875C13.961 11.5187 14.0927 11.5844 14.1585 11.65C14.2244 11.8469 14.2244 12.3062 14.0268 12.8312Z" fill="#131313"/>
</svg>
