<svg width="32" height="32" viewBox="0 0 32 32" fill="none" xmlns="http://www.w3.org/2000/svg">
<path d="M7.99986 14.6666H13.3332M10.6665 12V17.3333M19.9999 16H20.0132M23.9999 13.3333H24.0132M13.9318 6.66663H18.0679C21.5678 6.66663 23.3177 6.66663 24.6912 7.32987C25.9006 7.91382 26.9054 8.84941 27.574 10.0141C28.3334 11.3369 28.4581 13.0824 28.7075 16.5733L29.0355 21.166C29.1964 23.4179 27.4129 25.3333 25.1552 25.3333C24.0007 25.3333 22.9058 24.8205 22.1667 23.9335L21.6665 23.3333C21.209 22.7843 20.9802 22.5097 20.7197 22.2879C20.1736 21.8229 19.5125 21.5132 18.8057 21.3914C18.4685 21.3333 18.1111 21.3333 17.3964 21.3333H14.6033C13.8886 21.3333 13.5312 21.3333 13.194 21.3914C12.4872 21.5132 11.8261 21.8229 11.28 22.2879C11.0195 22.5097 10.7907 22.7842 10.3332 23.3333L9.83297 23.9336C9.09387 24.8205 7.99899 25.3333 6.84447 25.3333C4.58684 25.3333 2.80334 23.4179 2.96419 21.166L3.29223 16.5733C3.54159 13.0824 3.66626 11.3369 4.42568 10.0141C5.09432 8.84941 6.09911 7.91382 7.30847 7.32987C8.68202 6.66663 10.4319 6.66663 13.9318 6.66663Z" stroke="#1BD3B2" stroke-width="2" stroke-linecap="round" stroke-linejoin="round"/>
</svg>
