<svg width="32" height="32" viewBox="0 0 32 32" fill="none" xmlns="http://www.w3.org/2000/svg">
<path d="M16 9.33317H9.99996C9.1159 9.33317 8.26806 8.98198 7.64294 8.35686C7.01782 7.73174 6.66663 6.88389 6.66663 5.99984C6.66663 5.11578 7.01782 4.26794 7.64294 3.64281C8.26806 3.01769 9.1159 2.6665 9.99996 2.6665C14.6666 2.6665 16 9.33317 16 9.33317ZM16 9.33317H22C22.884 9.33317 23.7319 8.98198 24.357 8.35686C24.9821 7.73174 25.3333 6.88389 25.3333 5.99984C25.3333 5.11578 24.9821 4.26794 24.357 3.64281C23.7319 3.01769 22.884 2.6665 22 2.6665C17.3333 2.6665 16 9.33317 16 9.33317ZM16 9.33317L16 29.3332M2.66663 18.6665H29.3333M2.66663 13.5998L2.66663 25.0665C2.66663 26.56 2.66663 27.3067 2.95728 27.8771C3.21294 28.3789 3.62089 28.7869 4.12265 29.0425C4.69308 29.3332 5.43982 29.3332 6.93329 29.3332L25.0666 29.3332C26.5601 29.3332 27.3068 29.3332 27.8773 29.0425C28.379 28.7869 28.787 28.3789 29.0426 27.8771C29.3333 27.3067 29.3333 26.56 29.3333 25.0665V13.5998C29.3333 12.1064 29.3333 11.3596 29.0426 10.7892C28.787 10.2874 28.379 9.87948 27.8773 9.62382C27.3068 9.33317 26.5601 9.33317 25.0666 9.33317L6.93329 9.33317C5.43982 9.33317 4.69308 9.33317 4.12265 9.62382C3.62089 9.87948 3.21294 10.2874 2.95728 10.7892C2.66663 11.3596 2.66663 12.1064 2.66663 13.5998Z" stroke="#1BD3B2" stroke-width="2" stroke-linecap="round" stroke-linejoin="round"/>
</svg>
