<svg width="1920" height="1743" viewBox="0 0 1920 1743" fill="none" xmlns="http://www.w3.org/2000/svg">
<path opacity="0.2" d="M0 0.5H1920M0 60.5H1920M0 120.5H1920M0 180.5H1920M0 240.5H1920M0 300.5H1920M0 360.5H1920M0 420.5H1920M0 480.5H1920M0 540.5H1920M0 600.5H1920M0 660.5H1920M0 720.5H1920M0 780.5H1920M0 1741.5H1920M0.500027 1L0.49999 1742M60.5001 1L60.5 1742M120.5 1L120.5 1742M180.5 1L180.5 1742M240.5 1L240.5 1742M300.5 1L300.5 1742M360.5 1V1742M420.5 1L420.5 1742M480.5 1L480.5 1742M540.5 1L540.501 1742M600.5 1V1742M660.5 1V1742M720.5 1V1742M780.5 1V1742M840.5 1V1742M900.5 1V1742M960.5 1V1742M1020.5 1V1742M1080.5 1V1742M1140.5 1V1742M1200.5 1V1742M1260.5 1V1742M1320.5 1V1742M1380.5 1V1742M1440.5 1V1742M1500.5 1V1742M1560.5 1V1742M1620.5 1V1742M1680.5 1V1742M1740.5 1V1742M1800.5 1V1742M1860.5 1V1742M1920.5 1V1742M0 841H1920M0 901H1920M0 961H1920M0 1021H1920M0 1081H1920M0 1141H1920M0 1201H1920M0 1742H1920M0 1261.5H1920M0 1321.5H1920M0 1381.5H1920M0 1441.5H1920M0 1501.5H1920M0 1561.5H1920M0 1622H1920M0 1682H1920" stroke="#A22932"/>
</svg>
