<svg width="1920" height="602" viewBox="0 0 1920 602" fill="none" xmlns="http://www.w3.org/2000/svg">
<path opacity="0.2" d="M0 1H1920M0 61H1920M0 121H1920M0 181H1920M0 241H1920M0 301H1920M0 361H1920M0 421H1920M0 481H1920M0 541H1920M0 601H1920M0.500026 1.5L0.5 601.5M60.5001 1.5L60.5 601.5M120.5 1.5L120.5 601.5M180.5 1.5L180.5 601.5M240.5 1.5L240.5 601.5M300.5 1.5L300.5 601.5M360.5 1.5L360.5 601.5M420.5 1.5L420.5 601.5M480.5 1.5L480.5 601.5M540.5 1.5V601.5M600.5 1.5V601.5M660.5 1.5V601.5M720.5 1.5V601.5M780.5 1.5V601.5M840.5 1.5V601.5M900.5 1.5V601.5M960.5 1.5V601.5M1020.5 1.5V601.5M1080.5 1.5V601.5M1140.5 1.5V601.5M1200.5 1.5V601.5M1260.5 1.5V601.5M1320.5 1.5V601.5M1380.5 1.5V601.5M1440.5 1.5V601.5M1500.5 1.5V601.5M1560.5 1.5V601.5M1620.5 1.5V601.5M1680.5 1.5V601.5M1740.5 1.5V601.5M1800.5 1.5V601.5M1860.5 1.5V601.5M1920.5 1.5V601.5" stroke="#FF72D5"/>
</svg>
