<svg width="1920" height="237" viewBox="0 0 1920 237" fill="none" xmlns="http://www.w3.org/2000/svg">
<path d="M0 1H1920M0 61H1920M0 121H1920M0 181H1920M0 236.5H1920M0 236H1920M0.500026 1.5L0.499992 236.5M60.5001 1.5L60.5 236.5M120.5 1.5L120.5 236.5M180.5 1.5L180.5 236M240.5 1.5L240.5 236.5M300.5 1.5L300.5 236.5M360.5 1.5L360.5 236.5M420.5 1.5L420.5 236.5M480.5 1.5L480.5 236.5M540.5 1.5V236.5M600.5 1.5V236.5M660.5 1.5V236M720.5 1.5V236.5M780.5 1.5V236.5M840.5 1.5V236.5M900.5 1.5V236.5M960.5 1.5V236.5M1020.5 1.5V236.5M1080.5 1.5V236.5M1140.5 1.5V236.5M1200.5 1.5V236.5M1260.5 1.5V236.5M1320.5 1.5V236.5M1380.5 1.5V236.5M1440.5 1.5V236.5M1500.5 1.5V236.5M1560.5 1.5V236.5M1620.5 1.5V236.5M1680.5 1.5V236.5M1740.5 1.5V236.5M1800.5 1.5V236.5M1860.5 1.5V236.5M1920.5 1.5V236.5" stroke="white"/>
</svg>
