<svg width="1920" height="661" viewBox="0 0 1920 661" fill="none" xmlns="http://www.w3.org/2000/svg">
<path opacity="0.2" d="M0 0.5H1920M0 60.5H1920M0 120.5H1920M0 180.5H1920M0 240.5H1920M0 300.5H1920M0 360.5H1920M0 420.5H1920M0 480.5H1920M0 540.5H1920M0 600.5H1920M0 660.5H1920M0 660H1920M0.500026 1L0.49999 660.5M60.5001 1V660.5M120.5 1L120.5 660.5M180.5 1V660M240.5 1L240.5 660.5M300.5 1L300.5 660.5M360.5 1V660.5M420.5 1L420.5 660.5M480.5 1L480.5 660.5M540.5 1V660.5M600.5 1V660.5M660.5 1V660.5M720.5 1V660.5M780.5 1V660.5M840.5 1V660.5M900.5 1V660.5M960.5 1V660.5M1020.5 1V660.5M1080.5 1V660.5M1140.5 1V660.5M1200.5 1V660.5M1260.5 1V660.5M1320.5 1V660.5M1380.5 1V660.5M1440.5 1V660.5M1500.5 1V660.5M1560.5 1V660.5M1620.5 1V660.5M1680.5 1V660.5M1740.5 1V660.5M1800.5 1V660.5M1860.5 1V660.5M1920.5 1V660.5" stroke="#A22932"/>
</svg>
