<svg width="1920" height="1922" viewBox="0 0 1920 1922" fill="none" xmlns="http://www.w3.org/2000/svg">
<path opacity="0.1" d="M0 1H1920M0 61H1920M0 121H1920M0 181H1920M0 241H1920M0 301H1920M0 361H1920M0 421H1920M0 481H1920M0 541H1920M0 601H1920M0 661H1920M0 721H1920M0 781H1920M0 841H1920M0 901H1920M0 961H1920M0 1021H1920M0 1081H1920M0 1141H1920M0 1201H1920M0 1261H1920M0 1321H1920M0 1381H1920M0 1441H1920M0 1501H1920M0 1561H1920M0 1621H1920M0 1681H1920M0 1920.5H1920M0.500026 1.5L0.49995 1921H1920.5V1.5M60.5001 1.5L60.5 1921M120.5 1.5L120.5 1921M180.5 1.5L180.5 1921M240.5 1.5L240.5 1921M300.5 1.5L300.5 1921M360.5 1.5L360.5 1921M420.5 1.5L420.5 1921M480.5 1.5L480.5 1921M540.5 1.5V1921M600.5 1.5V1921M660.5 1.5V1921M720.5 1.5V1921M780.5 1.5V1921M840.5 1.5V1921M900.5 1.5V1921M960.5 1.5V1921M1020.5 1.5V1921M1080.5 1.5L1080.5 1921M1140.5 1.5V1921M1200.5 1.5V1921M1260.5 1.5V1921M1320.5 1.5V1921M1380.5 1.5V1921M1440.5 1.5V1921M1500.5 1.5V1921M1560.5 1.5V1921M1620.5 1.5V1921M1680.5 1.5V1921M1740.5 1.5V1921M1800.5 1.5V1921M1860.5 1.5V1921M0 1741H1920M0 1801H1920M0.499958 1861H1920.5" stroke="#1BD3B2"/>
</svg>
