<svg width="1920" height="421" viewBox="0 0 1920 421" fill="none" xmlns="http://www.w3.org/2000/svg">
<path opacity="0.05" d="M0 1H1920M0 61H1920M0 121H1920M0 181H1920M0 241H1920M0 301H1920M0 361H1920M0 421H1920M0 420.5H1920M0.500026 1.5L0.5 421M60.5001 1.5L60.5 421M120.5 1.5L120.5 421M180.5 1.5L180.5 421M240.5 1.5L240.5 421M300.5 1.5L300.5 421M360.5 1.5L360.5 421M420.5 1.5L420.5 421M480.5 1.5L480.5 421M540.5 1.5V421M600.5 1.5V421M660.5 1.5V421M720.5 1.5V421M780.5 1.5V421M840.5 1.5V421M900.5 1.5V421M960.5 1.5V421M1020.5 1.5V421M1080.5 1.5V421M1140.5 1.5V421M1200.5 1.5V421M1260.5 1.5V421M1320.5 1.5V421M1380.5 1.5V421M1440.5 1.5V421M1500.5 1.5V421M1560.5 1.5V421M1620.5 1.5V421M1680.5 1.5V421M1740.5 1.5V421M1800.5 1.5V421M1860.5 1.5V421M1920.5 1.5V421" stroke="white"/>
</svg>
