<svg width="284" height="380" viewBox="0 0 284 380" fill="none" xmlns="http://www.w3.org/2000/svg">
<path opacity="0.1" d="M284 0L284 2315.4M211.643 -3.16281e-06L211.643 2315.4M139.287 -6.32562e-06L139.287 2315.4M66.93 -9.48843e-06L66.9299 2315.4M8.93474e-05 -1.2414e-05L-1.18618e-05 2315.4M0.603062 -1.23877e-05L0.60296 2315.4M283.397 0.603L8.9321e-05 0.602946M283.397 72.9592L8.61582e-05 72.9591M283.397 145.315L8.29954e-05 145.315M283.397 217.672L0.603052 217.671M283.397 290.028L7.66698e-05 290.028M283.397 362.384L7.35071e-05 362.384M283.397 434.74L7.03443e-05 434.74M283.397 507.096L6.71815e-05 507.096M283.397 579.453L6.40187e-05 579.452M283.397 651.809L6.08559e-05 651.809M283.397 724.165L5.76931e-05 724.165M283.397 796.521L0.603027 796.521M283.397 868.877L5.13675e-05 868.877M283.397 941.233L4.82047e-05 941.233M283.397 1013.59L4.5042e-05 1013.59M283.397 1085.95L4.18792e-05 1085.95M283.397 1158.3L3.87164e-05 1158.3M283.397 1230.66L3.55536e-05 1230.66M283.397 1303.01L3.23908e-05 1303.01M283.397 1375.37L2.9228e-05 1375.37M283.397 1447.73L2.60652e-05 1447.73M283.397 1520.08L2.29024e-05 1520.08M283.397 1592.44L1.97397e-05 1592.44M283.397 1664.79L1.65769e-05 1664.79M283.397 1737.15L1.34141e-05 1737.15M283.397 1809.51L1.02513e-05 1809.51M283.397 1881.86L7.08851e-06 1881.86M283.397 1954.22L3.92572e-06 1954.22M283.397 2026.58L7.62935e-07 2026.58M283.397 2098.93L-2.39985e-06 2098.93M283.397 2171.29L-5.56264e-06 2171.29M283.397 2243.64L-8.72543e-06 2243.64M283.397 2316L-1.18882e-05 2316" stroke="white"/>
</svg>
