<svg width="346" height="337" viewBox="0 0 346 337" fill="none" xmlns="http://www.w3.org/2000/svg">
<g opacity="0.4">
<path d="M122.717 39.6609C122.717 38.9423 122.136 38.3342 121.389 38.3342H118.538L121.638 35.2388C122.163 34.7136 122.163 33.8845 121.638 33.387C121.112 32.8619 120.281 32.8619 119.783 33.387L114.829 38.3342H101.267L111.674 27.9423C112.2 27.4171 112.2 26.588 111.674 26.0905C111.148 25.5654 110.318 25.5654 109.82 26.0905L97.5587 38.3342H93.1858L89.7262 34.8795L103.786 20.8392H110.401C111.12 20.8392 111.729 20.2588 111.729 19.5126C111.729 18.794 111.148 18.186 110.401 18.186H106.415L107.605 16.9975H111.314C112.034 16.9975 112.643 16.4171 112.643 15.6709C112.643 14.9523 112.061 14.3442 111.314 14.3442H110.235L111.12 13.4598C111.646 12.9347 111.646 12.1055 111.12 11.6081C110.595 11.0829 109.764 11.0829 109.266 11.6081L108.38 12.4925V11.4146C108.38 10.696 107.799 10.088 107.052 10.088C106.332 10.088 105.723 10.6684 105.723 11.4146V15.1181L104.533 16.3066V12.3267C104.533 11.6081 103.952 11 103.205 11C102.485 11 101.876 11.5804 101.876 12.3267V18.9322L87.8165 32.9724L84.3569 29.5176V25.1508L96.6177 12.9071C97.1436 12.3819 97.1436 11.5528 96.6177 11.0553C96.0919 10.5302 95.2616 10.5302 94.7634 11.0553L84.3569 21.4473V7.90454L89.3111 2.9573C89.8369 2.43217 89.8369 1.60302 89.3111 1.10553C88.7852 0.580403 87.9549 0.580403 87.4567 1.10553L84.3569 4.20102V1.32663C84.3569 0.608038 83.7757 0 83.0284 0C82.3088 0 81.6999 0.5804 81.6999 1.32663V4.20102L78.6001 1.10553C78.0743 0.580403 77.2439 0.580403 76.7458 1.10553C76.2199 1.63066 76.2199 2.45981 76.7458 2.9573L81.6999 7.90454V21.4473L71.2934 11.0553C70.7676 10.5302 69.9373 10.5302 69.4391 11.0553C68.9132 11.5804 68.9132 12.4096 69.4391 12.9071L81.6999 25.1508V29.5176L78.2403 32.9724L64.1805 18.9322V12.3267C64.1805 11.6081 63.5993 11 62.852 11C62.1324 11 61.5235 11.5804 61.5235 12.3267V16.3066L60.3334 15.1181V11.4146C60.3334 10.696 59.7522 10.088 59.0049 10.088C58.2853 10.088 57.6764 10.6684 57.6764 11.4146V12.4925L56.7908 11.6081C56.2649 11.0829 55.4346 11.0829 54.9364 11.6081C54.4106 12.1332 54.4106 12.9623 54.9364 13.4598L55.8221 14.3442H54.7427C54.0231 14.3442 53.4142 14.9247 53.4142 15.6709C53.4142 16.3895 53.9954 16.9975 54.7427 16.9975H58.4514L59.6415 18.186H55.656C54.9364 18.186 54.3275 18.7664 54.3275 19.5126C54.3275 20.2312 54.9087 20.8392 55.656 20.8392H62.2708L76.3306 34.8795L72.871 38.3342H68.4981L56.3479 26.1181C55.8221 25.593 54.9918 25.593 54.4936 26.1181C53.9677 26.6433 53.9677 27.4724 54.4936 27.9699L64.9001 38.3619H51.3384L46.3843 33.4146C45.8584 32.8895 45.0281 32.8895 44.5299 33.4146C44.0041 33.9398 44.0041 34.7689 44.5299 35.2664L47.6297 38.3619H44.7514C44.0318 38.3619 43.4229 38.9423 43.4229 39.6885C43.4229 40.4071 44.0041 41.0152 44.7514 41.0152H47.6297L44.5023 44.083C43.9764 44.6081 43.9764 45.4373 44.5023 45.9348C44.7513 46.1835 45.0835 46.3217 45.4433 46.3217C45.8031 46.3217 46.1075 46.1835 46.3843 45.9348L51.3384 40.9875H64.9001L54.4936 51.3795C53.9677 51.9046 53.9677 52.7338 54.4936 53.2312C54.7427 53.48 55.0748 53.6182 55.4346 53.6182C55.7944 53.6182 56.0989 53.48 56.3756 53.2312L68.6365 40.9875H73.0094L76.469 44.4423L62.3815 58.4549H55.7667C55.0471 58.4549 54.4382 59.0353 54.4382 59.7815C54.4382 60.5001 55.0195 61.1081 55.7667 61.1081H59.7522L58.5621 62.2966H54.8534C54.1338 62.2966 53.5249 62.877 53.5249 63.6232C53.5249 64.3418 54.1061 64.9499 54.8534 64.9499H55.9328L55.0471 65.8343C54.5213 66.3594 54.5213 67.1886 55.0471 67.6861C55.2962 67.9348 55.6283 68.073 55.9881 68.073C56.3479 68.073 56.6524 67.9348 56.9292 67.6861L57.8148 66.8016V67.8795C57.8148 68.5981 58.396 69.2062 59.1433 69.2062C59.8629 69.2062 60.4718 68.6257 60.4718 67.8795V64.176L61.6619 62.9876V66.9675C61.6619 67.6861 62.2431 68.2941 62.9904 68.2941C63.71 68.2941 64.3189 67.7137 64.3189 66.9675V60.3619L78.3787 46.3217L81.8383 49.7765V54.1433L69.5775 66.3871C69.0516 66.9122 69.0516 67.7413 69.5775 68.2388C70.1033 68.764 70.9336 68.764 71.4318 68.2388L81.8383 57.8468V71.3896L76.8841 76.3368C76.3583 76.862 76.3583 77.6911 76.8841 78.1886C77.41 78.7137 78.2403 78.7137 78.7385 78.1886L81.8383 75.0931V77.9675C81.8383 78.6861 82.4195 79.2941 83.1668 79.2941C83.8864 79.2941 84.4953 78.7137 84.4953 77.9675V75.0931L87.5951 78.1886C87.8442 78.4373 88.1763 78.5755 88.5361 78.5755C88.8959 78.5755 89.2003 78.4373 89.4771 78.1886C90.003 77.6635 90.003 76.8343 89.4771 76.3368L84.5229 71.3896V57.8468L94.9294 68.2388C95.1785 68.4876 95.5106 68.6257 95.8704 68.6257C96.2302 68.6257 96.5347 68.4876 96.8115 68.2388C97.3373 67.7137 97.3373 66.8845 96.8115 66.3871L84.5506 54.1433V49.7765L88.0102 46.3217L102.07 60.3619V66.9675C102.07 67.6861 102.651 68.2941 103.399 68.2941C104.118 68.2941 104.727 67.7137 104.727 66.9675V62.9876L105.917 64.176V67.8519C105.917 68.5705 106.498 69.1785 107.246 69.1785C107.965 69.1785 108.574 68.5981 108.574 67.8519V66.774L109.46 67.6584C109.709 67.9072 110.041 68.0454 110.401 68.0454C110.733 68.0454 111.065 67.9072 111.342 67.6584C111.868 67.1333 111.868 66.3041 111.342 65.8066L110.456 64.9222H111.536C112.255 64.9222 112.864 64.3418 112.864 63.5956C112.864 62.877 112.283 62.269 111.536 62.269H107.827L106.637 61.0805H110.622C111.342 61.0805 111.951 60.5001 111.951 59.7539C111.951 59.0353 111.369 58.4272 110.622 58.4272H104.007L89.9476 44.387L93.4072 40.9322H97.7802L110.041 53.176C110.29 53.4247 110.622 53.5629 110.982 53.5629C111.342 53.5629 111.646 53.4247 111.923 53.176C112.449 52.6509 112.449 51.8217 111.923 51.3242L101.517 40.9322H115.078L120.032 45.8795C120.281 46.1282 120.614 46.2664 120.973 46.2664C121.333 46.2664 121.638 46.1282 121.914 45.8795C122.44 45.3544 122.44 44.5252 121.914 44.0277L118.815 40.9322H121.693C122.136 40.9875 122.717 40.4071 122.717 39.6609ZM83.0838 47.3443L75.3896 39.6609L83.0561 32.0051L90.7226 39.6609L83.0838 47.3443Z" fill="white"/>
<path d="M84.8084 186.171H82.2193L83.6945 184.696C84.2665 184.124 84.2665 183.222 83.6945 182.68C83.1225 182.108 82.2193 182.108 81.6774 182.68L78.155 186.201H69.8759L71.6522 184.425C72.2242 183.854 72.2242 182.951 71.6522 182.409C71.0801 181.837 70.177 181.837 69.6351 182.409L65.8116 186.231H59.2184L67.4072 178.045C67.9792 177.473 67.9792 176.57 67.4072 176.029C66.8352 175.457 65.932 175.457 65.3901 176.029L55.1842 186.231H52.9865L50.6382 182.138L60.2119 172.538H65.631C66.4137 172.538 67.076 171.906 67.076 171.093C67.076 170.311 66.4438 169.648 65.631 169.648H63.1021L68.9426 163.81H73.9101C74.6928 163.81 75.3552 163.178 75.3552 162.365C75.3552 161.553 74.723 160.921 73.9101 160.921H71.8027L73.6391 159.085C74.2112 158.513 74.2112 157.61 73.6391 157.069C73.0671 156.497 72.1639 156.497 71.622 157.069L69.7856 158.904V156.798C69.7856 156.015 69.1534 155.353 68.3405 155.353C67.5577 155.353 66.8954 155.985 66.8954 156.798V161.763L61.0549 167.602V165.074C61.0549 164.291 60.4226 163.629 59.6098 163.629C58.827 163.629 58.1647 164.261 58.1647 165.074V170.461L49.163 179.46L48.4706 178.256H44.5568V175.427L54.7627 165.224C55.3347 164.653 55.3347 163.75 54.7627 163.208C54.1907 162.636 53.2875 162.636 52.7456 163.208L44.5568 171.454V164.863L48.3803 161.041C48.9523 160.469 48.9523 159.566 48.3803 159.025C47.8082 158.453 46.9051 158.453 46.3632 159.025L44.5568 160.8V152.524L48.0792 149.003C48.6512 148.431 48.6512 147.528 48.0792 146.987C47.5072 146.415 46.604 146.415 46.0621 146.987L44.5869 148.461V145.873C44.5869 145.091 43.9547 144.428 43.1418 144.428C42.329 144.428 41.6967 145.06 41.6967 145.873V148.461L40.2215 146.987C39.6495 146.415 38.7464 146.415 38.2044 146.987C37.6324 147.558 37.6324 148.461 38.2044 149.003L41.7268 152.524V160.8L39.9506 159.025C39.3786 158.453 38.4754 158.453 37.9335 159.025C37.3615 159.597 37.3615 160.499 37.9335 161.041L41.7569 164.863V171.454L33.5681 163.268C32.9961 162.696 32.0929 162.696 31.551 163.268C30.979 163.84 30.979 164.743 31.551 165.285L41.7569 175.487V178.316H37.8131L37.1206 179.52L28.119 170.521V165.134C28.119 164.352 27.4867 163.69 26.6739 163.69C25.8911 163.69 25.2288 164.322 25.2288 165.134V167.662L19.3882 161.824V156.858C19.3882 156.075 18.756 155.413 17.9431 155.413C17.1604 155.413 16.4981 156.045 16.4981 156.858V158.965L14.6616 157.129C14.0896 156.557 13.1864 156.557 12.6445 157.129C12.0725 157.701 12.0725 158.603 12.6445 159.145L14.481 160.981H12.3735C11.5908 160.981 10.9285 161.613 10.9285 162.426C10.9285 163.238 11.5607 163.87 12.3735 163.87H17.341L23.1816 169.679H20.6527C19.8699 169.679 19.2076 170.311 19.2076 171.123C19.2076 171.906 19.8398 172.568 20.6527 172.568H26.0416L35.5852 182.108L33.237 186.201H31.0091L20.8032 175.999C20.2312 175.427 19.328 175.427 18.7861 175.999C18.2141 176.57 18.2141 177.473 18.7861 178.015L26.9749 186.201H20.3817L16.5583 182.349C15.9863 181.777 15.0831 181.777 14.5412 182.349C13.9692 182.921 13.9692 183.823 14.5412 184.365L16.3174 186.141H8.06839L4.546 182.62C3.97398 182.048 3.07081 182.048 2.5289 182.62C1.95689 183.191 1.95689 184.094 2.5289 184.636L4.00409 186.111H1.44509C0.662331 186.111 0 186.743 0 187.555C0 188.338 0.632225 189 1.44509 189H4.0342L2.55901 190.475C1.98699 191.046 1.98699 191.949 2.55901 192.491C2.82996 192.762 3.19123 192.912 3.58261 192.912C3.97398 192.912 4.30515 192.762 4.60621 192.491L8.1286 188.97H16.4077L14.6315 190.745C14.0595 191.317 14.0595 192.22 14.6315 192.762C14.9024 193.033 15.2637 193.183 15.6551 193.183C16.0164 193.183 16.3776 193.033 16.6787 192.762L20.5021 188.94H27.0954L18.7861 197.216C18.2141 197.788 18.2141 198.691 18.7861 199.232C19.0571 199.503 19.4183 199.654 19.8097 199.654C20.171 199.654 20.5323 199.503 20.8333 199.232L31.0392 189.03H33.237L35.5852 193.123L26.0416 202.663H20.6226C19.8398 202.663 19.1775 203.295 19.1775 204.108C19.1775 204.92 19.8097 205.552 20.6226 205.552H23.1816L17.3109 211.361H12.3434C11.5607 211.361 10.8984 211.993 10.8984 212.805C10.8984 213.618 11.5306 214.25 12.3434 214.25H14.4509L12.6144 216.086C12.0424 216.658 12.0424 217.56 12.6144 218.102C12.8853 218.373 13.2466 218.523 13.638 218.523C13.9993 218.523 14.3605 218.373 14.6616 218.102L16.4981 216.266V218.373C16.4981 219.155 17.1303 219.818 17.9431 219.818C18.7259 219.818 19.3882 219.186 19.3882 218.373V213.407L25.2288 207.569V210.097C25.2288 210.879 25.861 211.541 26.6739 211.541C27.4566 211.541 28.119 210.909 28.119 210.097V204.71L37.1206 195.711L37.8131 196.915H41.7569V199.744L31.551 209.946C30.979 210.518 30.979 211.421 31.551 211.963C32.123 212.534 33.0262 212.534 33.5681 211.963L41.7569 203.777V210.368L37.9335 214.19C37.3615 214.762 37.3615 215.664 37.9335 216.206C38.5055 216.778 39.4087 216.778 39.9506 216.206L41.7268 214.431V222.707L38.2044 226.228C37.6324 226.8 37.6324 227.703 38.2044 228.244C38.7765 228.816 39.6796 228.816 40.2215 228.244L41.6967 226.77V229.358C41.6967 230.14 42.329 230.802 43.1418 230.802C43.9547 230.802 44.5869 230.17 44.5869 229.358V226.709L46.0621 228.184C46.333 228.455 46.6943 228.605 47.0857 228.605C47.447 228.605 47.8082 228.455 48.1093 228.184C48.6813 227.612 48.6813 226.709 48.1093 226.168L44.5568 222.647V214.37L46.333 216.146C46.604 216.417 46.9653 216.567 47.3567 216.567C47.7179 216.567 48.0792 216.417 48.3803 216.146C48.9523 215.574 48.9523 214.671 48.3803 214.13L44.5568 210.338V203.747L52.7456 211.933C53.0166 212.203 53.3778 212.354 53.7692 212.354C54.1305 212.354 54.4918 212.203 54.7928 211.933C55.3648 211.361 55.3648 210.458 54.7928 209.916L44.5568 199.714V196.885H48.5007L49.1931 195.681L58.1948 204.68V210.067C58.1948 210.849 58.827 211.511 59.6399 211.511C60.4226 211.511 61.085 210.879 61.085 210.067V207.539L66.9255 213.377V218.343C66.9255 219.125 67.5577 219.787 68.3706 219.787C69.1534 219.787 69.8157 219.155 69.8157 218.343V216.236L71.6522 218.072C71.9231 218.343 72.2844 218.493 72.6758 218.493C73.037 218.493 73.3983 218.343 73.6994 218.072C74.2714 217.5 74.2714 216.597 73.6994 216.056L71.8629 214.22H73.9703C74.7531 214.22 75.4154 213.588 75.4154 212.775C75.4154 211.963 74.7832 211.331 73.9703 211.331H68.9426L63.1021 205.492H65.631C66.4137 205.492 67.076 204.86 67.076 204.048C67.076 203.235 66.4438 202.603 65.631 202.603H60.2119L50.6683 193.063L53.0166 188.97H55.2143L65.4202 199.172C65.6912 199.443 66.0524 199.593 66.4438 199.593C66.8051 199.593 67.1664 199.443 67.4674 199.172C68.0394 198.6 68.0394 197.697 67.4674 197.156L59.2786 188.97H65.8718L69.6953 192.792C69.9662 193.063 70.3275 193.213 70.7189 193.213C71.0801 193.213 71.4414 193.063 71.7425 192.792C72.3145 192.22 72.3145 191.317 71.7425 190.775L69.9662 189H78.2454L81.7677 192.521C82.0387 192.792 82.4 192.942 82.7914 192.942C83.1827 192.942 83.5139 192.792 83.8149 192.521C84.387 191.949 84.387 191.046 83.8149 190.505L82.3398 189.03H84.9289C85.7116 189.03 86.374 188.398 86.374 187.585C86.2535 186.803 85.6213 186.171 84.8084 186.171ZM46.8449 194.026H39.4087L35.7057 187.585L39.4087 181.145H46.8449L50.5479 187.585L46.8449 194.026Z" fill="white"/>
<path d="M225.776 57.1004H224.489L225.222 56.3671C225.507 56.0828 225.507 55.6338 225.222 55.3644C224.938 55.0801 224.489 55.0801 224.219 55.3644L222.467 57.1154H218.351L219.234 56.2324C219.518 55.9481 219.518 55.4991 219.234 55.2297C218.949 54.9454 218.5 54.9454 218.231 55.2297L216.33 57.1303H213.051L217.123 53.0597C217.407 52.7754 217.407 52.3264 217.123 52.057C216.839 51.7727 216.389 51.7727 216.12 52.057L211.045 57.1303H209.952L208.784 55.095L213.545 50.321H216.24C216.629 50.321 216.958 50.0068 216.958 49.6027C216.958 49.2136 216.644 48.8843 216.24 48.8843H214.982L217.886 45.981H220.357C220.746 45.981 221.075 45.6668 221.075 45.2627C221.075 44.8586 220.761 44.5444 220.357 44.5444H219.309L220.222 43.6315C220.506 43.3471 220.506 42.8982 220.222 42.6288C219.937 42.3444 219.488 42.3444 219.219 42.6288L218.306 43.5417V42.4941C218.306 42.105 217.991 41.7757 217.587 41.7757C217.198 41.7757 216.868 42.09 216.868 42.4941V44.9634L213.964 47.8667V46.6096C213.964 46.2205 213.65 45.8912 213.246 45.8912C212.856 45.8912 212.527 46.2055 212.527 46.6096V49.2884L208.051 53.7631L207.706 53.1645H205.76V51.7577L210.835 46.6844C211.12 46.4001 211.12 45.9511 210.835 45.6817C210.551 45.3974 210.102 45.3974 209.832 45.6817L205.76 49.7823V46.5048L207.661 44.6042C207.946 44.3199 207.946 43.8709 207.661 43.6015C207.377 43.3172 206.928 43.3172 206.658 43.6015L205.76 44.4845V40.369L207.512 38.618C207.796 38.3337 207.796 37.8847 207.512 37.6153C207.227 37.331 206.778 37.331 206.509 37.6153L205.775 38.3486V37.0616C205.775 36.6725 205.461 36.3433 205.057 36.3433C204.652 36.3433 204.338 36.6575 204.338 37.0616V38.3486L203.604 37.6153C203.32 37.331 202.871 37.331 202.601 37.6153C202.317 37.8997 202.317 38.3486 202.601 38.618L204.353 40.369V44.4845L203.47 43.6015C203.185 43.3172 202.736 43.3172 202.467 43.6015C202.182 43.8859 202.182 44.3348 202.467 44.6042L204.368 46.5048V49.7823L200.296 45.7117C200.011 45.4273 199.562 45.4273 199.293 45.7117C199.008 45.996 199.008 46.445 199.293 46.7144L204.368 51.7877V53.1944H202.407L202.062 53.793L197.586 49.3183V46.6395C197.586 46.2504 197.272 45.9212 196.868 45.9212C196.478 45.9212 196.149 46.2355 196.149 46.6395V47.8966L193.245 44.9933V42.524C193.245 42.1349 192.93 41.8057 192.526 41.8057C192.137 41.8057 191.807 42.1199 191.807 42.524V43.5716L190.894 42.6587C190.61 42.3744 190.161 42.3744 189.891 42.6587C189.607 42.943 189.607 43.392 189.891 43.6614L190.804 44.5743H189.756C189.367 44.5743 189.038 44.8886 189.038 45.2926C189.038 45.6967 189.352 46.011 189.756 46.011H192.227L195.131 48.8993H193.873C193.484 48.8993 193.155 49.2136 193.155 49.6177C193.155 50.0068 193.469 50.336 193.873 50.336H196.553L201.299 55.0801L200.131 57.1154H199.023L193.948 52.0421C193.664 51.7577 193.215 51.7577 192.945 52.0421C192.661 52.3264 192.661 52.7754 192.945 53.0448L197.017 57.1154H193.739L191.837 55.1998C191.553 54.9154 191.104 54.9154 190.834 55.1998C190.55 55.4841 190.55 55.9331 190.834 56.2025L191.718 57.0854H187.616L185.864 55.3345C185.58 55.0501 185.131 55.0501 184.861 55.3345C184.577 55.6188 184.577 56.0678 184.861 56.3372L185.595 57.0705H184.322C183.933 57.0705 183.604 57.3848 183.604 57.7888C183.604 58.1779 183.918 58.5072 184.322 58.5072H185.61L184.876 59.2405C184.592 59.5248 184.592 59.9738 184.876 60.2432C185.011 60.3779 185.19 60.4527 185.385 60.4527C185.58 60.4527 185.744 60.3779 185.894 60.2432L187.646 58.4922H191.763L190.879 59.3752C190.595 59.6595 190.595 60.1085 190.879 60.3779C191.014 60.5125 191.194 60.5874 191.388 60.5874C191.568 60.5874 191.748 60.5125 191.897 60.3779L193.799 58.4772H197.077L192.945 62.5927C192.661 62.8771 192.661 63.3261 192.945 63.5954C193.08 63.7301 193.26 63.8049 193.454 63.8049C193.634 63.8049 193.814 63.7301 193.963 63.5954L199.038 58.5221H200.131L201.299 60.5574L196.553 65.3015H193.858C193.469 65.3015 193.14 65.6158 193.14 66.0199C193.14 66.4239 193.454 66.7382 193.858 66.7382H195.131L192.212 69.6265H189.742C189.352 69.6265 189.023 69.9408 189.023 70.3449C189.023 70.7489 189.337 71.0632 189.742 71.0632H190.789L189.876 71.9761C189.592 72.2605 189.592 72.7094 189.876 72.9788C190.011 73.1135 190.191 73.1883 190.385 73.1883C190.565 73.1883 190.745 73.1135 190.894 72.9788L191.807 72.0659V73.1135C191.807 73.5026 192.122 73.8318 192.526 73.8318C192.915 73.8318 193.245 73.5176 193.245 73.1135V70.6442L196.149 67.7409V68.998C196.149 69.3871 196.463 69.7163 196.868 69.7163C197.257 69.7163 197.586 69.4021 197.586 68.998V66.3192L202.062 61.8445L202.407 62.4431H204.368V63.8499L199.293 68.9232C199.008 69.2075 199.008 69.6565 199.293 69.9258C199.577 70.2102 200.026 70.2102 200.296 69.9258L204.368 65.8552V69.1327L202.467 71.0333C202.182 71.3176 202.182 71.7666 202.467 72.036C202.751 72.3203 203.2 72.3203 203.47 72.036L204.353 71.153V75.2685L202.601 77.0195C202.317 77.3038 202.317 77.7528 202.601 78.0222C202.886 78.3065 203.335 78.3065 203.604 78.0222L204.338 77.2889V78.5759C204.338 78.965 204.652 79.2942 205.057 79.2942C205.461 79.2942 205.775 78.98 205.775 78.5759V77.2589L206.509 77.9923C206.643 78.1269 206.823 78.2018 207.018 78.2018C207.197 78.2018 207.377 78.1269 207.527 77.9923C207.811 77.7079 207.811 77.2589 207.527 76.9896L205.76 75.2386V71.1231L206.643 72.0061C206.778 72.1407 206.958 72.2156 207.152 72.2156C207.332 72.2156 207.512 72.1407 207.661 72.0061C207.946 71.7217 207.946 71.2727 207.661 71.0034L205.76 69.1177V65.8403L209.832 69.9109C209.967 70.0456 210.147 70.1204 210.341 70.1204C210.521 70.1204 210.701 70.0456 210.85 69.9109C211.135 69.6265 211.135 69.1776 210.85 68.9082L205.76 63.8349V62.4281H207.721L208.066 61.8295L212.542 66.3042V68.983C212.542 69.3721 212.856 69.7014 213.261 69.7014C213.65 69.7014 213.979 69.3871 213.979 68.983V67.7259L216.883 70.6292V73.0985C216.883 73.4876 217.198 73.8169 217.602 73.8169C217.991 73.8169 218.321 73.5026 218.321 73.0985V72.0509L219.234 72.9638C219.369 73.0985 219.548 73.1734 219.743 73.1734C219.922 73.1734 220.102 73.0985 220.252 72.9638C220.536 72.6795 220.536 72.2305 220.252 71.9611L219.339 71.0483H220.387C220.776 71.0483 221.105 70.734 221.105 70.3299C221.105 69.9258 220.791 69.6116 220.387 69.6116H217.886L214.982 66.7083H216.24C216.629 66.7083 216.958 66.394 216.958 65.9899C216.958 65.5858 216.644 65.2716 216.24 65.2716H213.545L208.799 60.5275L209.967 58.4922H211.06L216.135 63.5655C216.27 63.7002 216.449 63.775 216.644 63.775C216.824 63.775 217.003 63.7002 217.153 63.5655C217.437 63.2812 217.437 62.8322 217.153 62.5628L213.081 58.4922H216.359L218.261 60.3928C218.395 60.5275 218.575 60.6023 218.77 60.6023C218.949 60.6023 219.129 60.5275 219.279 60.3928C219.563 60.1085 219.563 59.6595 219.279 59.3901L218.395 58.5072H222.512L224.264 60.2581C224.399 60.3928 224.578 60.4676 224.773 60.4676C224.968 60.4676 225.132 60.3928 225.282 60.2581C225.566 59.9738 225.566 59.5248 225.282 59.2554L224.548 58.5221H225.836C226.225 58.5221 226.554 58.2079 226.554 57.8038C226.495 57.4147 226.18 57.1004 225.776 57.1004ZM206.898 61.0064H203.2L201.359 57.8038L203.2 54.6012H206.898L208.739 57.8038L206.898 61.0064Z" fill="white"/>
<path d="M180.171 132.468L173.73 127.072H179.442C180.074 127.072 180.609 126.561 180.609 125.905C180.609 125.249 180.098 124.738 179.442 124.738H173.73L180.171 119.342C180.658 118.929 180.73 118.199 180.317 117.713C179.904 117.227 179.175 117.154 178.689 117.567L171.882 123.255L168.868 120.752C168.382 120.338 167.653 120.411 167.239 120.898C166.826 121.384 166.899 122.113 167.385 122.526L170.035 124.738H163.18V120.752C163.18 120.12 162.669 119.585 162.013 119.585C161.381 119.585 160.846 120.095 160.846 120.752V124.763H160.141L156.738 121.359V116.546L163.739 109.546L163.423 112.997C163.374 113.629 163.836 114.188 164.468 114.261C164.493 114.261 164.541 114.261 164.565 114.261C165.149 114.261 165.659 113.8 165.708 113.216L166.267 107.018L168.09 105.194L167.337 113.556C167.288 114.189 167.75 114.748 168.382 114.821C168.406 114.821 168.455 114.821 168.479 114.821C169.063 114.821 169.573 114.359 169.622 113.775L170.667 102.229V102.205C170.667 102.18 170.667 102.132 170.667 102.107C170.667 102.083 170.667 102.083 170.667 102.059C170.667 102.034 170.667 102.01 170.667 101.986C170.667 101.961 170.667 101.961 170.667 101.937C170.667 101.913 170.667 101.889 170.643 101.864C170.643 101.84 170.643 101.84 170.643 101.816C170.643 101.791 170.618 101.767 170.618 101.743C170.618 101.718 170.618 101.718 170.594 101.694C170.594 101.67 170.57 101.645 170.57 101.621C170.57 101.621 170.57 101.597 170.545 101.597C170.521 101.573 170.521 101.548 170.497 101.524C170.497 101.524 170.497 101.5 170.472 101.5C170.448 101.475 170.448 101.451 170.424 101.427C170.424 101.427 170.424 101.402 170.399 101.402C170.375 101.378 170.351 101.329 170.327 101.305C170.302 101.281 170.278 101.257 170.229 101.232C170.229 101.232 170.205 101.232 170.205 101.208C170.181 101.184 170.156 101.159 170.132 101.159C170.132 101.159 170.108 101.159 170.108 101.135C170.083 101.111 170.059 101.111 170.035 101.086C170.035 101.086 170.011 101.086 170.011 101.062C169.986 101.062 169.962 101.038 169.938 101.038C169.913 101.038 169.913 101.038 169.889 101.013C169.865 101.013 169.84 100.989 169.816 100.989C169.792 100.989 169.792 100.989 169.767 100.989C169.743 100.989 169.719 100.989 169.695 100.965C169.67 100.965 169.67 100.965 169.646 100.965C169.622 100.965 169.597 100.965 169.573 100.965C169.549 100.965 169.549 100.965 169.524 100.965C169.5 100.965 169.451 100.965 169.427 100.965H169.403L157.856 102.01C157.224 102.059 156.763 102.618 156.811 103.274C156.86 103.906 157.419 104.392 158.075 104.319L166.437 103.566L164.614 105.389L158.416 105.948C157.783 105.997 157.322 106.556 157.37 107.212C157.419 107.844 157.978 108.33 158.634 108.257L162.086 107.941L155.085 114.942H150.345L146.942 111.539V110.834H150.953C151.585 110.834 152.12 110.323 152.12 109.667C152.12 109.011 151.609 108.5 150.953 108.5H146.942V101.645L149.154 104.295C149.567 104.781 150.297 104.854 150.783 104.441C151.269 104.028 151.342 103.298 150.929 102.812L148.425 99.798L154.113 92.9917C154.526 92.5056 154.453 91.7763 153.967 91.3631C153.481 90.9498 152.752 91.0228 152.338 91.5089L146.942 97.9749V92.2625C146.942 91.6305 146.432 91.0957 145.775 91.0957C145.143 91.0957 144.608 91.6062 144.608 92.2625V97.9749L139.212 91.5332C138.799 91.0471 138.07 90.9741 137.583 91.3874C137.097 91.8006 137.024 92.5299 137.438 93.016L143.126 99.8223L140.622 102.812C140.209 103.298 140.282 104.028 140.768 104.441C140.987 104.611 141.254 104.708 141.497 104.708C141.837 104.708 142.153 104.562 142.396 104.295L144.608 101.645V108.5H140.622C139.99 108.5 139.455 109.011 139.455 109.667C139.455 110.323 139.966 110.834 140.622 110.834H144.633V111.539L141.23 114.942H136.417L129.416 107.941L132.868 108.257C133.5 108.306 134.059 107.844 134.132 107.212C134.18 106.58 133.718 106.021 133.086 105.948L126.888 105.389L125.065 103.566L133.427 104.319C134.059 104.368 134.618 103.906 134.691 103.274C134.739 102.642 134.277 102.083 133.645 102.01L122.099 100.965H122.075C122.05 100.965 122.026 100.965 121.977 100.965C121.953 100.965 121.929 100.965 121.929 100.965C121.905 100.965 121.88 100.965 121.88 100.965C121.856 100.965 121.832 100.965 121.807 100.965C121.783 100.965 121.759 100.965 121.759 100.965C121.734 100.965 121.71 100.965 121.71 100.989C121.686 100.989 121.661 100.989 121.661 101.013C121.637 101.013 121.637 101.013 121.613 101.038C121.589 101.038 121.564 101.062 121.54 101.062C121.516 101.062 121.516 101.086 121.491 101.086C121.467 101.086 121.443 101.111 121.418 101.135L121.394 101.159C121.37 101.184 121.345 101.184 121.321 101.208L121.297 101.232C121.273 101.257 121.224 101.281 121.2 101.305C121.175 101.329 121.151 101.354 121.127 101.402C121.127 101.402 121.127 101.427 121.102 101.427C121.078 101.451 121.054 101.475 121.054 101.5C121.054 101.5 121.054 101.524 121.029 101.524C121.005 101.548 121.005 101.573 120.981 101.597C120.981 101.597 120.981 101.621 120.957 101.621C120.957 101.645 120.932 101.67 120.932 101.694C120.932 101.718 120.932 101.718 120.908 101.743C120.908 101.767 120.884 101.791 120.884 101.816C120.884 101.84 120.884 101.84 120.884 101.864C120.884 101.889 120.884 101.913 120.859 101.937C120.859 101.961 120.859 101.961 120.859 101.986C120.859 102.01 120.859 102.034 120.859 102.059C120.859 102.083 120.859 102.083 120.859 102.107C120.859 102.132 120.859 102.18 120.859 102.205V102.229L121.905 113.775C121.953 114.383 122.464 114.821 123.047 114.821C123.071 114.821 123.12 114.821 123.144 114.821C123.776 114.772 124.238 114.213 124.19 113.556L123.436 105.194L125.259 107.018L125.818 113.216C125.867 113.824 126.377 114.261 126.961 114.261C126.985 114.261 127.034 114.261 127.058 114.261C127.69 114.213 128.152 113.654 128.103 112.997L127.787 109.546L134.788 116.546V121.359L131.385 124.763H130.68V120.752C130.68 120.12 130.169 119.585 129.513 119.585C128.881 119.585 128.346 120.095 128.346 120.752V124.763H121.491L124.141 122.551C124.627 122.137 124.7 121.408 124.287 120.922C123.874 120.436 123.144 120.363 122.658 120.776L119.644 123.28L112.838 117.592C112.351 117.178 111.622 117.251 111.209 117.737C110.796 118.224 110.869 118.953 111.355 119.366L117.796 124.763H112.084C111.452 124.763 110.917 125.273 110.917 125.929C110.917 126.586 111.428 127.096 112.084 127.096H117.796L111.355 132.493C110.869 132.906 110.796 133.635 111.209 134.121C111.428 134.389 111.768 134.534 112.108 134.534C112.376 134.534 112.643 134.437 112.838 134.267L119.644 128.579L122.658 131.083C122.877 131.253 123.144 131.35 123.387 131.35C123.728 131.35 124.044 131.204 124.287 130.937C124.7 130.451 124.627 129.721 124.141 129.308L121.491 127.096H128.346V131.107C128.346 131.739 128.857 132.274 129.513 132.274C130.145 132.274 130.68 131.763 130.68 131.107V127.096H131.385L134.788 130.499V135.312L127.787 142.313L128.103 138.861C128.152 138.229 127.69 137.67 127.058 137.597C126.426 137.549 125.867 138.011 125.794 138.643L125.235 144.841L123.412 146.664L124.165 138.302C124.214 137.67 123.752 137.111 123.12 137.038C122.488 136.99 121.929 137.451 121.856 138.083L120.811 149.63V149.654C120.811 149.679 120.811 149.727 120.811 149.751C120.811 149.776 120.811 149.776 120.811 149.8C120.811 149.824 120.811 149.849 120.811 149.873C120.811 149.897 120.811 149.897 120.811 149.922C120.811 149.946 120.811 149.97 120.835 149.995C120.835 150.019 120.835 150.019 120.835 150.043C120.835 150.067 120.859 150.092 120.859 150.116C120.859 150.14 120.859 150.14 120.884 150.165C120.884 150.189 120.908 150.213 120.908 150.238C120.908 150.238 120.908 150.262 120.932 150.262C120.957 150.286 120.957 150.311 120.981 150.335C120.981 150.335 120.981 150.359 121.005 150.359C121.029 150.383 121.029 150.408 121.054 150.432C121.054 150.432 121.054 150.456 121.078 150.456C121.102 150.481 121.127 150.529 121.151 150.554C121.175 150.578 121.2 150.602 121.248 150.627C121.273 150.651 121.297 150.651 121.321 150.675C121.321 150.675 121.345 150.675 121.345 150.699C121.37 150.724 121.394 150.748 121.443 150.748C121.467 150.772 121.516 150.772 121.54 150.797C121.564 150.821 121.613 150.821 121.637 150.821C121.637 150.821 121.637 150.821 121.661 150.821C121.686 150.821 121.71 150.845 121.759 150.845H121.783C121.807 150.845 121.832 150.845 121.856 150.87H121.88C121.929 150.87 121.953 150.87 122.002 150.87C122.026 150.87 122.075 150.87 122.099 150.87L133.645 149.824C134.277 149.776 134.739 149.217 134.691 148.56C134.642 147.928 134.083 147.466 133.427 147.515L125.065 148.269L126.888 146.446L133.086 145.886C133.718 145.838 134.18 145.279 134.132 144.622C134.083 143.99 133.524 143.529 132.868 143.577L129.416 143.893L136.417 136.892H141.23L144.633 140.296V141H140.622C139.99 141 139.455 141.511 139.455 142.167C139.455 142.824 139.966 143.334 140.622 143.334H144.633V150.189L142.421 147.539C142.007 147.053 141.278 146.98 140.792 147.394C140.306 147.807 140.233 148.536 140.646 149.022L143.15 152.036L137.462 158.843C137.049 159.329 137.122 160.058 137.608 160.471C138.094 160.885 138.823 160.812 139.236 160.326L144.633 153.884V159.596C144.633 160.228 145.143 160.763 145.8 160.763C146.432 160.763 146.966 160.253 146.966 159.596V153.884L152.363 160.326C152.582 160.593 152.922 160.739 153.262 160.739C153.53 160.739 153.797 160.642 153.991 160.471C154.478 160.058 154.55 159.329 154.137 158.843L148.449 152.036L150.953 149.022C151.366 148.536 151.293 147.807 150.807 147.394C150.321 146.98 149.592 147.053 149.178 147.539L146.966 150.189V143.358H150.977C151.609 143.358 152.144 142.848 152.144 142.192C152.144 141.535 151.634 141.025 150.977 141.025H146.942V140.32L150.345 136.917H155.158L162.159 143.917L158.707 143.601C158.075 143.553 157.516 144.015 157.443 144.647C157.395 145.279 157.856 145.838 158.488 145.911L164.687 146.47L166.51 148.293L158.148 147.539C157.516 147.491 156.957 147.953 156.884 148.585C156.835 149.217 157.297 149.776 157.929 149.849L169.476 150.894C169.5 150.894 169.549 150.894 169.573 150.894C169.622 150.894 169.646 150.894 169.695 150.894H169.719C169.743 150.894 169.767 150.894 169.792 150.87H169.816C169.84 150.87 169.865 150.845 169.913 150.845C169.913 150.845 169.913 150.845 169.938 150.845C169.962 150.845 170.011 150.821 170.035 150.821C170.059 150.797 170.108 150.797 170.132 150.772C170.156 150.748 170.181 150.748 170.229 150.724C170.229 150.724 170.254 150.724 170.254 150.699C170.278 150.675 170.302 150.675 170.327 150.651C170.351 150.627 170.375 150.602 170.424 150.578C170.448 150.554 170.472 150.529 170.497 150.481C170.497 150.481 170.497 150.456 170.521 150.456C170.545 150.432 170.57 150.408 170.57 150.383C170.57 150.383 170.57 150.359 170.594 150.359C170.618 150.335 170.618 150.311 170.643 150.286C170.643 150.286 170.643 150.262 170.667 150.262C170.667 150.238 170.691 150.213 170.691 150.189C170.691 150.165 170.691 150.165 170.715 150.14C170.715 150.116 170.74 150.092 170.74 150.067C170.74 150.043 170.74 150.043 170.74 150.019C170.74 149.995 170.74 149.97 170.764 149.946C170.764 149.922 170.764 149.922 170.764 149.897C170.764 149.873 170.764 149.849 170.764 149.824C170.764 149.8 170.764 149.8 170.764 149.776C170.764 149.751 170.764 149.703 170.764 149.679V149.654L169.719 138.108C169.67 137.476 169.111 137.014 168.455 137.063C167.823 137.111 167.361 137.67 167.41 138.327L168.163 146.689L166.34 144.865L165.781 138.667C165.732 138.035 165.173 137.573 164.517 137.622C163.885 137.67 163.423 138.229 163.472 138.886L163.788 142.337L156.787 135.337V130.475L160.19 127.072H160.895V131.083C160.895 131.715 161.405 132.25 162.062 132.25C162.694 132.25 163.229 131.739 163.229 131.083V127.072H170.083L167.434 129.284C166.948 129.697 166.875 130.426 167.288 130.913C167.507 131.18 167.847 131.326 168.187 131.326C168.455 131.326 168.722 131.229 168.917 131.058L171.931 128.555L178.737 134.243C178.956 134.413 179.223 134.51 179.466 134.51C179.807 134.51 180.123 134.364 180.366 134.097C180.73 133.611 180.682 132.882 180.171 132.468ZM156.908 127.096L154.478 129.527V132.979V134.607H152.849H149.373L146.942 137.038L145.775 138.205L142.178 134.607H138.726H137.097V132.979V129.527L134.666 127.096L133.5 125.929L134.666 124.763L137.097 122.332V118.88V117.251H138.726H142.178L145.775 113.654L146.942 114.821L149.373 117.251H152.825H154.453V118.88V122.332L156.884 124.763L158.051 125.929L156.908 127.096Z" fill="white"/>
<path d="M152.29 119.415H148.474L145.775 116.717L143.077 119.415H139.261V123.231L136.562 125.929L139.261 128.628V132.444H143.077L145.775 135.142L148.474 132.444H152.29V128.628L154.988 125.929L152.29 123.231V119.415ZM149.981 127.68V130.135H147.526L145.8 131.861L144.074 130.135H141.594V127.68L139.868 125.954L141.594 124.228V121.773H144.049L145.775 120.047L147.501 121.773H149.956V124.228L151.682 125.954L149.981 127.68Z" fill="white"/>
<path d="M337.283 153.396C333.932 153.396 331.053 155.615 330.109 158.683H323.832L332.422 150.092C333.319 149.196 333.319 147.78 332.422 146.93C331.525 146.033 330.109 146.033 329.259 146.93L317.46 158.73H315.053C314.061 154.623 310.333 151.603 305.943 151.603C301.554 151.603 297.872 154.623 296.834 158.73H280.456L291.406 147.78H308.067C309.294 147.78 310.333 146.788 310.333 145.514C310.333 144.287 309.341 143.249 308.067 143.249H295.89L299.052 140.086C300.279 140.747 301.601 141.077 302.922 141.077C304.999 141.077 307.076 140.275 308.634 138.717C310.144 137.207 310.993 135.178 310.993 133.006C310.993 131.638 310.663 130.269 310.002 129.089L311.324 127.767H321.047C322.274 127.767 323.312 126.776 323.312 125.502C323.312 124.227 322.321 123.236 321.047 123.236H315.808L319.489 119.555C320.386 118.658 320.386 117.242 319.489 116.392C318.593 115.496 317.177 115.496 316.327 116.392L312.645 120.074V114.835C312.645 113.608 311.654 112.569 310.38 112.569C309.153 112.569 308.114 113.56 308.114 114.835V124.558L306.793 125.879C305.613 125.219 304.291 124.888 302.875 124.888C300.704 124.888 298.675 125.738 297.164 127.248C294.568 129.844 294.096 133.762 295.795 136.829L292.633 139.992V127.814C292.633 126.587 291.642 125.549 290.368 125.549C289.14 125.549 288.102 126.54 288.102 127.814V144.476L277.152 155.426V139.048C281.258 138.057 284.279 134.328 284.279 129.938C284.279 125.549 281.258 121.867 277.152 120.829V118.422L288.952 106.622C289.848 105.725 289.848 104.309 288.952 103.46C288.055 102.563 286.639 102.563 285.789 103.46L277.199 112.05V105.773C280.267 104.829 282.485 101.949 282.485 98.5984C282.485 94.4449 279.087 91.0938 274.981 91.0938C270.827 91.0938 267.476 94.4921 267.476 98.5984C267.476 101.949 269.694 104.829 272.762 105.773V112.144L264.172 103.554C263.275 102.657 261.859 102.657 261.01 103.554C260.113 104.451 260.113 105.867 261.01 106.717L272.81 118.516V120.923C268.703 121.915 265.683 125.643 265.683 130.033C265.683 134.422 268.703 138.104 272.81 139.142V155.52L261.859 144.57V127.909C261.859 126.682 260.868 125.643 259.594 125.643C258.367 125.643 257.328 126.635 257.328 127.909V140.086L254.166 136.924C255.865 133.856 255.393 129.938 252.797 127.342C251.287 125.832 249.257 124.983 247.086 124.983C245.717 124.983 244.349 125.313 243.169 125.974L241.847 124.652V114.929C241.847 113.702 240.856 112.664 239.582 112.664C238.354 112.664 237.316 113.655 237.316 114.929V120.168L233.635 116.487C232.738 115.59 231.322 115.59 230.472 116.487C229.575 117.384 229.575 118.799 230.472 119.649L234.154 123.331H228.915C227.687 123.331 226.649 124.322 226.649 125.596C226.649 126.87 227.64 127.862 228.915 127.862H238.638L239.959 129.183C239.298 130.363 238.968 131.685 238.968 133.101C238.968 135.272 239.818 137.301 241.328 138.812C242.885 140.369 244.962 141.172 247.039 141.172C248.361 141.172 249.729 140.841 250.909 140.181L254.072 143.343H241.894C240.667 143.343 239.629 144.334 239.629 145.608C239.629 146.836 240.62 147.874 241.894 147.874H258.555L269.506 158.824H253.269C252.278 154.718 248.549 151.697 244.16 151.697C239.77 151.697 236.089 154.718 235.05 158.824H232.643L220.844 147.024C219.947 146.128 218.531 146.128 217.681 147.024C216.784 147.921 216.784 149.337 217.681 150.187L226.271 158.777H219.994C219.05 155.709 216.171 153.491 212.82 153.491C208.666 153.491 205.315 156.889 205.315 160.995C205.315 165.149 208.714 168.5 212.82 168.5C216.171 168.5 219.05 166.282 219.994 163.214H226.271L217.681 171.804C216.784 172.701 216.784 174.117 217.681 174.966C218.106 175.391 218.672 175.627 219.286 175.627C219.9 175.627 220.419 175.391 220.891 174.966L232.691 163.166H235.098C236.089 167.273 239.818 170.293 244.207 170.293C248.597 170.293 252.278 167.273 253.316 163.166H269.694L258.744 174.117H242.083C240.856 174.117 239.818 175.108 239.818 176.382C239.818 177.609 240.809 178.648 242.083 178.648H254.26L251.098 181.81C248.03 180.111 244.113 180.583 241.517 183.179C240.006 184.689 239.157 186.719 239.157 188.89C239.157 190.259 239.487 191.627 240.148 192.807L238.826 194.129H229.103C227.876 194.129 226.838 195.12 226.838 196.394C226.838 197.622 227.829 198.66 229.103 198.66H234.342L230.661 202.341C229.764 203.238 229.764 204.654 230.661 205.504C231.086 205.929 231.652 206.165 232.266 206.165C232.879 206.165 233.399 205.929 233.871 205.504L237.552 201.822V207.061C237.552 208.289 238.543 209.327 239.818 209.327C241.045 209.327 242.083 208.336 242.083 207.061V197.338L243.405 196.017C244.632 196.678 245.953 197.008 247.275 197.008C249.352 197.008 251.428 196.206 252.986 194.648C255.582 192.052 256.054 188.135 254.355 185.067L257.517 181.904V194.082C257.517 195.309 258.508 196.347 259.783 196.347C261.01 196.347 262.048 195.356 262.048 194.082V177.279L272.998 166.329V182.707C268.892 183.698 265.871 187.427 265.871 191.816C265.871 196.206 268.892 199.887 272.998 200.926V203.333L261.199 215.132C260.302 216.029 260.302 217.445 261.199 218.295C262.095 219.192 263.511 219.192 264.361 218.295L272.951 209.705V215.982C269.883 216.926 267.665 219.805 267.665 223.156C267.665 227.31 271.063 230.661 275.17 230.661C279.323 230.661 282.674 227.263 282.674 223.156C282.674 219.805 280.456 216.926 277.388 215.982V209.705L285.978 218.295C286.403 218.72 286.969 218.956 287.583 218.956C288.149 218.956 288.716 218.72 289.188 218.295C290.084 217.398 290.084 215.982 289.188 215.132L277.388 203.333V200.926C281.494 199.934 284.515 196.206 284.515 191.816C284.515 187.427 281.494 183.745 277.388 182.707V166.329L288.338 177.279V193.94C288.338 195.167 289.329 196.206 290.604 196.206C291.831 196.206 292.869 195.214 292.869 193.94V181.763L296.031 184.925C294.332 187.993 294.804 191.911 297.4 194.507C298.958 196.064 301.034 196.866 303.111 196.866C304.433 196.866 305.802 196.536 306.982 195.875L308.303 197.197V206.92C308.303 208.147 309.294 209.185 310.569 209.185C311.796 209.185 312.834 208.194 312.834 206.92V201.681L316.516 205.362C316.941 205.787 317.507 206.023 318.121 206.023C318.734 206.023 319.253 205.787 319.725 205.362C320.622 204.465 320.622 203.049 319.725 202.2L316.044 198.518H321.283C322.51 198.518 323.548 197.527 323.548 196.253C323.548 195.026 322.557 193.987 321.283 193.987H311.56L310.238 192.666C310.899 191.486 311.229 190.164 311.229 188.748C311.229 186.577 310.38 184.548 308.87 183.037C306.274 180.441 302.356 179.969 299.288 181.668L296.126 178.506H308.303C309.53 178.506 310.569 177.515 310.569 176.241C310.569 175.013 309.577 173.975 308.303 173.975H291.642L280.692 163.025H297.07C298.061 167.131 301.79 170.152 306.179 170.152C310.569 170.152 314.25 167.131 315.289 163.025H317.696L329.495 174.825C329.92 175.249 330.487 175.485 331.1 175.485C331.667 175.485 332.233 175.249 332.705 174.825C333.602 173.928 333.602 172.512 332.705 171.662L324.115 163.072H330.392C331.336 166.14 334.215 168.358 337.566 168.358C341.72 168.358 345.071 164.96 345.071 160.854C344.835 156.747 341.437 153.396 337.283 153.396ZM300.421 130.458C301.082 129.797 301.979 129.419 302.97 129.419C303.914 129.419 304.81 129.797 305.518 130.458C306.179 131.118 306.557 132.015 306.557 133.006C306.557 133.95 306.179 134.847 305.518 135.555C304.102 136.971 301.837 136.971 300.468 135.555C299.052 134.139 299.052 131.874 300.421 130.458ZM249.729 135.555C248.313 136.971 246.048 136.971 244.679 135.555C244.018 134.894 243.641 133.998 243.641 133.006C243.641 132.062 244.018 131.166 244.679 130.458C245.34 129.797 246.237 129.419 247.228 129.419C248.172 129.419 249.069 129.797 249.777 130.458C251.098 131.874 251.098 134.139 249.729 135.555ZM212.867 163.922C211.215 163.922 209.846 162.553 209.846 160.901C209.846 159.249 211.215 157.88 212.867 157.88C214.519 157.88 215.888 159.249 215.888 160.901C215.888 162.553 214.519 163.922 212.867 163.922ZM244.16 165.81C241.469 165.81 239.298 163.638 239.298 160.948C239.298 158.258 241.469 156.087 244.16 156.087C246.85 156.087 249.021 158.258 249.021 160.948C249.021 163.638 246.85 165.81 244.16 165.81ZM249.729 191.344C248.313 192.76 246.048 192.76 244.679 191.344C244.018 190.683 243.641 189.787 243.641 188.795C243.641 187.851 244.018 186.955 244.679 186.247C246.095 184.831 248.361 184.831 249.729 186.247C251.098 187.663 251.098 189.928 249.729 191.344ZM272.054 98.6928C272.054 97.0408 273.423 95.672 275.075 95.672C276.727 95.672 278.096 97.0408 278.096 98.6928C278.096 100.345 276.727 101.713 275.075 101.713C273.376 101.713 272.054 100.345 272.054 98.6928ZM278.096 223.109C278.096 224.761 276.727 226.13 275.075 226.13C273.423 226.13 272.054 224.761 272.054 223.109C272.054 221.457 273.423 220.088 275.075 220.088C276.727 220.088 278.096 221.457 278.096 223.109ZM279.937 191.816C279.937 194.506 277.765 196.678 275.075 196.678C272.385 196.678 270.214 194.506 270.214 191.816C270.214 189.126 272.385 186.955 275.075 186.955C277.765 186.955 279.937 189.126 279.937 191.816ZM275.075 134.894C272.385 134.894 270.214 132.723 270.214 130.033C270.214 127.342 272.385 125.171 275.075 125.171C277.765 125.171 279.937 127.342 279.937 130.033C279.937 132.676 277.765 134.894 275.075 134.894ZM300.421 186.247C301.837 184.831 304.102 184.831 305.471 186.247C306.132 186.907 306.51 187.804 306.51 188.795C306.51 189.739 306.132 190.636 305.471 191.344C304.055 192.76 301.79 192.76 300.421 191.344C299.052 189.928 299.052 187.663 300.421 186.247ZM305.99 165.81C303.3 165.81 301.129 163.638 301.129 160.948C301.129 158.258 303.3 156.087 305.99 156.087C308.681 156.087 310.852 158.258 310.852 160.948C310.852 163.638 308.681 165.81 305.99 165.81ZM337.283 163.922C335.631 163.922 334.262 162.553 334.262 160.901C334.262 159.249 335.631 157.88 337.283 157.88C338.935 157.88 340.304 159.249 340.304 160.901C340.304 162.553 338.982 163.922 337.283 163.922Z" fill="white"/>
<path d="M215.282 278.913H213.486L214.579 277.815C215.321 277.071 215.321 275.895 214.579 275.189C213.837 274.445 212.665 274.445 211.962 275.189L208.252 278.913H205.869L209.853 274.915C210.595 274.17 210.595 272.994 209.853 272.289C209.111 271.544 207.939 271.544 207.236 272.289L200.635 278.913H198.135L191.534 272.289C190.792 271.544 189.621 271.544 188.918 272.289C188.175 273.034 188.175 274.209 188.918 274.915L192.902 278.913H188.371L181.731 272.25V262.843L184.934 259.629V265.273C184.934 266.292 185.754 267.154 186.808 267.154C187.824 267.154 188.683 266.331 188.683 265.273V255.905L190.441 254.142H199.776C200.791 254.142 201.651 253.318 201.651 252.26C201.651 251.241 200.83 250.379 199.776 250.379H194.151L195.831 248.693H201.065C202.08 248.693 202.94 247.87 202.94 246.812C202.94 245.793 202.119 244.931 201.065 244.931H199.542L200.791 243.676C201.534 242.932 201.534 241.756 200.791 241.05C200.049 240.306 198.878 240.306 198.174 241.05L196.925 242.305V240.776C196.925 239.757 196.104 238.895 195.05 238.895C193.995 238.895 193.175 239.718 193.175 240.776V246.028L191.495 247.714V242.069C191.495 241.05 190.675 240.188 189.621 240.188C188.605 240.188 187.746 241.011 187.746 242.069V251.437L185.988 253.201H176.653C175.638 253.201 174.778 254.024 174.778 255.082C174.778 256.101 175.598 256.964 176.653 256.964H182.278L179.075 260.178H169.701L163.061 253.514V249.007L167.045 253.005C167.396 253.358 167.865 253.554 168.373 253.554C168.88 253.554 169.31 253.358 169.701 253.005C170.443 252.26 170.443 251.084 169.701 250.379L163.1 243.755V241.246L169.701 234.622C170.443 233.878 170.443 232.702 169.701 231.996C168.958 231.252 167.787 231.252 167.084 231.996L163.1 235.994V233.603L166.81 229.88C167.552 229.135 167.552 227.959 166.81 227.254C166.068 226.509 164.896 226.509 164.193 227.254L163.1 228.351V226.548C163.1 225.529 162.279 224.667 161.225 224.667C160.17 224.667 159.35 225.49 159.35 226.548V228.351L158.256 227.254C157.514 226.509 156.342 226.509 155.639 227.254C154.897 227.998 154.897 229.174 155.639 229.88L159.35 233.603V235.994L155.366 231.996C154.624 231.252 153.452 231.252 152.749 231.996C152.007 232.741 152.007 233.917 152.749 234.622L159.35 241.246V243.755L152.749 250.379C152.007 251.123 152.007 252.299 152.749 253.005C153.491 253.75 154.663 253.75 155.366 253.005L159.35 249.007V253.554L152.71 260.217H143.336L140.133 257.003H145.757C146.773 257.003 147.632 256.18 147.632 255.121C147.632 254.102 146.812 253.24 145.757 253.24H136.422L134.665 251.476V242.109C134.665 241.09 133.845 240.227 132.79 240.227C131.774 240.227 130.915 241.05 130.915 242.109V247.753L129.236 246.067V240.815C129.236 239.796 128.415 238.934 127.361 238.934C126.345 238.934 125.486 239.757 125.486 240.815V242.344L124.236 241.09C123.494 240.345 122.322 240.345 121.619 241.09C120.877 241.834 120.877 243.01 121.619 243.716L122.869 244.97H121.346C120.33 244.97 119.471 245.793 119.471 246.851C119.471 247.87 120.291 248.733 121.346 248.733H126.58L128.259 250.418H122.635C121.619 250.418 120.76 251.241 120.76 252.299C120.76 253.318 121.58 254.181 122.635 254.181H131.97L133.727 255.944V265.312C133.727 266.331 134.548 267.193 135.602 267.193C136.618 267.193 137.477 266.37 137.477 265.312V259.668L140.68 262.882V272.289L134.04 278.952H129.509L133.493 274.954C134.235 274.209 134.235 273.034 133.493 272.328C132.751 271.583 131.579 271.583 130.876 272.328L124.275 278.952H121.775L115.174 272.328C114.432 271.583 113.26 271.583 112.557 272.328C111.815 273.073 111.815 274.249 112.557 274.954L116.541 278.952H114.159L110.448 275.229C109.706 274.484 108.534 274.484 107.831 275.229C107.089 275.973 107.089 277.149 107.831 277.855L108.925 278.952H107.128C106.113 278.952 105.253 279.775 105.253 280.833C105.253 281.852 106.074 282.715 107.128 282.715H108.925L107.831 283.812C107.089 284.557 107.089 285.733 107.831 286.438C108.183 286.791 108.652 286.987 109.159 286.987C109.628 286.987 110.097 286.791 110.487 286.438L114.198 282.715H116.58L112.597 286.713C111.854 287.457 111.854 288.633 112.597 289.339C112.948 289.692 113.417 289.887 113.924 289.887C114.432 289.887 114.862 289.692 115.252 289.339L121.853 282.715H124.353L130.954 289.339C131.306 289.692 131.774 289.887 132.282 289.887C132.79 289.887 133.22 289.692 133.61 289.339C134.352 288.594 134.352 287.418 133.61 286.713L129.626 282.715H134.157L140.797 289.378V298.785L137.594 301.999V296.355C137.594 295.336 136.774 294.473 135.719 294.473C134.704 294.473 133.844 295.296 133.844 296.355V305.722L132.087 307.486H122.752C121.736 307.486 120.877 308.309 120.877 309.367C120.877 310.387 121.697 311.249 122.752 311.249H128.376L126.697 312.934H121.463C120.447 312.934 119.588 313.757 119.588 314.816C119.588 315.835 120.408 316.697 121.463 316.697H122.986L121.736 317.951C120.994 318.696 120.994 319.872 121.736 320.577C122.088 320.93 122.556 321.126 123.064 321.126C123.572 321.126 124.002 320.93 124.392 320.577L125.642 319.323V320.852C125.642 321.871 126.462 322.733 127.517 322.733C128.533 322.733 129.392 321.91 129.392 320.852V315.6L131.071 313.914V319.558C131.071 320.577 131.892 321.44 132.946 321.44C133.962 321.44 134.821 320.617 134.821 319.558V310.191L136.579 308.427H145.914C146.929 308.427 147.789 307.604 147.789 306.545C147.789 305.526 146.968 304.664 145.914 304.664H140.289L143.492 301.45H152.866L159.506 308.113V312.66L155.522 308.662C154.78 307.917 153.608 307.917 152.905 308.662C152.163 309.407 152.163 310.583 152.905 311.288L159.506 317.912V320.421L152.905 327.044C152.163 327.789 152.163 328.965 152.905 329.671C153.647 330.415 154.819 330.415 155.522 329.671L159.506 325.673V328.064L155.796 331.787C155.053 332.532 155.053 333.708 155.796 334.413C156.538 335.158 157.709 335.158 158.413 334.413L159.506 333.316V335.119C159.506 336.138 160.326 337 161.381 337C162.436 337 163.256 336.177 163.256 335.119V333.277L164.35 334.374C164.701 334.727 165.17 334.923 165.677 334.923C166.146 334.923 166.615 334.727 167.005 334.374C167.748 333.629 167.748 332.453 167.005 331.748L163.295 328.024V325.633L167.279 329.631C167.63 329.984 168.099 330.18 168.607 330.18C169.115 330.18 169.544 329.984 169.935 329.631C170.677 328.887 170.677 327.711 169.935 327.005L163.334 320.381V317.873L169.935 311.249C170.677 310.504 170.677 309.328 169.935 308.623C169.193 307.878 168.021 307.878 167.318 308.623L163.334 312.621V308.074L169.974 301.411H179.348L182.551 304.625H176.926C175.911 304.625 175.052 305.448 175.052 306.506C175.052 307.525 175.872 308.388 176.926 308.388H186.262L188.019 310.151V319.519C188.019 320.538 188.839 321.4 189.894 321.4C190.91 321.4 191.769 320.577 191.769 319.519V313.875L193.448 315.56V320.734C193.448 321.753 194.269 322.615 195.323 322.615C196.378 322.615 197.198 321.792 197.198 320.734V319.205L198.448 320.46C198.799 320.812 199.268 321.008 199.776 321.008C200.245 321.008 200.713 320.812 201.104 320.46C201.846 319.715 201.846 318.539 201.104 317.834L199.854 316.579H201.377C202.393 316.579 203.252 315.756 203.252 314.698C203.252 313.679 202.432 312.817 201.377 312.817H196.143L194.464 311.131H200.088C201.104 311.131 201.963 310.308 201.963 309.25C201.963 308.231 201.143 307.369 200.088 307.369H190.753L188.996 305.605V296.237C188.996 295.218 188.175 294.356 187.121 294.356C186.105 294.356 185.246 295.179 185.246 296.237V301.92L182.043 298.706V289.3L188.683 282.636H193.214L189.23 286.634C188.488 287.379 188.488 288.555 189.23 289.26C189.582 289.613 190.05 289.809 190.558 289.809C191.066 289.809 191.495 289.613 191.886 289.26L198.487 282.636H200.987L207.588 289.26C207.939 289.613 208.408 289.809 208.916 289.809C209.423 289.809 209.853 289.613 210.244 289.26C210.986 288.516 210.986 287.34 210.244 286.634L206.26 282.636H208.642L212.353 286.36C212.704 286.713 213.173 286.909 213.681 286.909C214.189 286.909 214.618 286.713 215.009 286.36C215.751 285.615 215.751 284.439 215.009 283.734L213.915 282.636H215.712C216.727 282.636 217.587 281.813 217.587 280.755C217.118 279.736 216.298 278.913 215.282 278.913ZM163.022 258.806L166.927 262.725C167.123 263.274 167.591 263.666 168.138 263.823C168.412 263.979 168.724 264.058 169.037 264.058C169.31 264.058 169.544 264.019 169.779 263.901H175.325L171.029 268.213H166.342L163.022 264.881V258.806ZM152.554 263.901C153.061 264.136 153.686 264.097 154.194 263.823C154.741 263.666 155.21 263.235 155.405 262.725L159.311 258.806V264.92L155.991 268.252H151.304L147.007 263.94H152.554V263.901ZM143.219 274.954C143.765 274.758 144.156 274.288 144.312 273.739C144.586 273.23 144.625 272.602 144.39 272.093V266.527L148.687 270.839V275.542L145.367 278.874H139.274L143.219 274.954ZM144.312 287.771C144.156 287.222 143.726 286.752 143.219 286.556L139.313 282.636H145.406L148.726 285.968V290.671L144.429 294.983V289.417C144.625 288.908 144.586 288.281 144.312 287.771ZM159.311 302.743L155.405 298.824C155.21 298.275 154.741 297.883 154.194 297.727C153.686 297.452 153.061 297.413 152.554 297.648H147.007L151.304 293.337H155.991L159.311 296.668V302.743ZM161.186 293.219L157.553 289.574H152.397V284.4L148.765 280.755L152.397 277.11V271.936H157.553L161.186 268.291L164.818 271.936H169.974V277.11L173.606 280.755L169.974 284.4V289.574H164.818L161.186 293.219ZM169.818 297.609C169.31 297.374 168.685 297.413 168.177 297.687C167.63 297.844 167.162 298.275 166.966 298.785L163.061 302.704V296.59L166.381 293.258H171.068L175.364 297.57H169.818V297.609ZM179.153 286.556C178.606 286.752 178.215 287.222 178.059 287.771C177.786 288.281 177.747 288.908 177.981 289.417V294.983L173.685 290.671V285.968L177.005 282.636H183.098L179.153 286.556ZM177.005 278.913L173.685 275.581V270.878L177.981 266.566V272.132C177.747 272.642 177.786 273.269 178.059 273.778C178.215 274.327 178.645 274.797 179.153 274.993L183.059 278.913H177.005Z" fill="white"/>
</g>
</svg>
