<svg width="32" height="32" viewBox="0 0 32 32" fill="none" xmlns="http://www.w3.org/2000/svg">
<path d="M5.99999 29.3332V22.6665M5.99999 9.33317V2.6665M2.66666 5.99984H9.33332M2.66666 25.9998H9.33332M17.3333 3.99984L15.0211 10.0117C14.6451 10.9893 14.4571 11.4781 14.1647 11.8893C13.9056 12.2537 13.5872 12.5721 13.2228 12.8312C12.8116 13.1236 12.3228 13.3116 11.3451 13.6876L5.33332 15.9998L11.3451 18.3121C12.3228 18.6881 12.8116 18.8761 13.2228 19.1685C13.5872 19.4276 13.9056 19.746 14.1647 20.1104C14.4571 20.5216 14.6451 21.0104 15.0211 21.988L17.3333 27.9998L19.6456 21.988C20.0216 21.0104 20.2096 20.5216 20.5019 20.1104C20.7611 19.746 21.0795 19.4276 21.4439 19.1685C21.855 18.8761 22.3439 18.6881 23.3215 18.3121L29.3333 15.9998L23.3215 13.6876C22.3439 13.3116 21.855 13.1236 21.4439 12.8312C21.0795 12.5721 20.7611 12.2537 20.5019 11.8893C20.2096 11.4781 20.0216 10.9893 19.6456 10.0117L17.3333 3.99984Z" stroke="#1BD3B2" stroke-width="2" stroke-linecap="round" stroke-linejoin="round"/>
</svg>
